<svg width="176" height="118" viewBox="0 0 176 118" fill="none" xmlns="http://www.w3.org/2000/svg">
<path d="M82.5332 33.1873C86.1899 35.1611 93.975 42.5006 96.4835 45.287C98.5098 47.5361 100.573 49.7668 102.552 52.0577C105.33 55.2714 108.201 58.6947 110.232 62.4458C111.897 65.5205 108.856 69.2086 105.498 67.8272C101.915 66.3278 99.2018 63.9006 96.0825 61.6908C92.9212 59.4497 88.4625 55.9713 88.4625 55.9713C88.4625 55.9713 81.3327 49.6042 78.7507 46.7549L82.528 33.1899L82.5332 33.1873Z" fill="#E28B4C"/>
<path d="M82.9107 69.3895C67.1622 73.7853 57.052 69.4341 52.2997 67.3475C53.0494 65.1509 53.9616 62.7656 54.588 61.164C55.1097 59.8245 55.2984 58.3697 55.1359 56.9359L54.7741 53.7249C60.1975 55.3553 70.1399 57.0093 83.1781 53.4077L83.1152 59.1509C83.1152 59.1509 82.2265 65.2164 82.9055 69.3895H82.9107Z" fill="#E28B4C"/>
<path d="M83.1807 53.4077L83.1702 54.3409C71.2225 58.0001 60.4387 56.0866 54.8607 54.4981L54.7742 53.7275C60.1975 55.3579 70.14 57.0093 83.1807 53.4077Z" fill="#B56B39"/>
<path d="M76.7743 70.0396C71.2932 70.2755 65.7886 70.3095 60.3731 69.2558C57.6653 68.7787 54.9812 68.1444 52.3022 67.3528C53.5788 67.9006 54.8894 68.3698 56.2132 68.7918C62.9183 70.8102 69.883 71.3947 76.8398 70.6398C79.6052 70.3279 80.2212 70.0998 82.908 69.3921C80.14 69.7879 79.5214 69.8377 76.7743 70.0396Z" fill="#B56B39"/>
<path d="M83.4716 49.772L83.4323 53.4968C70.1661 57.0617 60.0507 55.4261 54.533 53.8114L53.1647 41.9948C52.8501 39.7719 51.4609 35.3211 53.4556 33.7378C57.6811 30.3826 64.8581 29.6565 68.3548 29.6565C77.6917 29.6565 81.0312 32.1257 82.5332 33.1874C82.5332 33.1874 85.0758 41.6802 85.2095 43.6724C85.3117 45.2032 84.2134 48.0472 83.4716 49.772Z" fill="#009152"/>
<path d="M93.6394 122.661C89.9618 104.315 84.1557 83.6412 83.3772 73.0671C62.7217 76.9885 50.8658 71.0278 50.8658 71.0278C49.2275 81.6281 47.2327 103.531 46.4647 122.661H93.6421H93.6394Z" fill="#009152"/>
<g style="mix-blend-mode:multiply" opacity="0.3">
<path d="M81.8831 72.3541C82.8975 86.6006 82.9106 100.986 81.9382 115.238C81.7678 117.275 81.6131 119.314 81.3877 121.345C82.2658 105.29 82.2684 88.4224 81.8831 72.3541Z" fill="#1A1A3D"/>
<g style="mix-blend-mode:multiply">
<path d="M55.2904 71.2847C54.5067 75.4236 54.6299 79.5993 54.6902 83.7985C54.4228 94.1839 55.0441 104.805 55.6129 115.18C55.702 117.275 55.8278 119.369 55.8933 121.466C55.0807 113.332 54.5093 104.695 54.221 96.3674C54.0427 90.0791 54.2341 83.788 54.4018 77.5023C54.5172 75.4105 54.7505 73.3161 55.238 71.2716C55.2459 71.2401 55.2957 71.2506 55.2878 71.2847H55.2904Z" fill="#1A1A3D"/>
</g>
<g style="mix-blend-mode:multiply">
<path d="M64.2315 73.1431C64.4989 82.0868 64.1293 91.3975 63.9773 100.336C63.875 106.242 63.8908 112.535 64.1005 118.441C64.1529 119.445 64.1948 120.452 64.2315 121.461C62.6194 105.673 63.9196 88.9676 64.2315 73.1458V73.1431Z" fill="#1A1A3D"/>
</g>
<g style="mix-blend-mode:multiply">
<path d="M73.7729 73.4026C74.5435 87.2953 74.9289 101.51 74.1897 115.408C74.0508 117.406 73.9276 119.406 73.731 121.398C74.4046 105.668 73.883 89.138 73.7729 73.4026Z" fill="#1A1A3D"/>
</g>
</g>
<path d="M83.3773 73.0671C78.1793 74.3777 74.8346 74.6399 70.2159 74.5612C61.2277 74.4144 54.4176 72.3751 50.8658 71.0278C51.1332 69.9662 51.5631 68.6319 52.048 67.2427C56.8816 69.3082 66.887 73.7408 82.9107 69.3895C83.1256 70.6608 83.2855 71.7879 83.3432 72.5612C83.3563 72.7263 83.3668 72.8967 83.3773 73.0671Z" fill="#FFB350"/>
<path d="M72.5147 40C72.5147 40 63.8174 36.1441 62.8135 30.1257C64.9655 29.7719 66.9551 29.6565 68.3548 29.6565C71.3876 29.6565 73.8359 29.937 75.8359 30.3695C76.3785 35.8217 72.5147 40 72.5147 40Z" fill="#E28B4C"/>
<path d="M75.904 31.0982C75.9381 32.7234 75.6366 34.3486 75.0311 35.8584C74.4361 37.3682 73.6052 38.7916 72.5436 40.0236L72.5252 40.0445L72.5016 40.0341C68.803 38.2516 64.2866 35.1611 63.0415 31.0825C63.9039 33.1035 65.3902 34.8256 67.1149 36.1913C68.7899 37.591 70.6982 38.7313 72.6536 39.6933L72.2709 39.7719C72.7821 39.2005 73.2539 38.5399 73.6681 37.8689C74.499 36.5111 75.1701 35.0432 75.5265 33.4888C75.7389 32.7129 75.7992 31.9108 75.8647 31.1008C75.8621 31.0746 75.9066 31.072 75.904 31.1008V31.0982Z" fill="#B56B39"/>
<path d="M28.9836 66.1916C30.5747 62.5375 32.6953 59.0853 34.9181 55.7852C37.0492 52.6239 39.2956 49.5204 41.5316 46.4325C43.8697 43.2032 46.3521 40.0655 49.0886 37.1638C50.1948 35.9895 51.8488 34.5583 53.3272 33.8505C54.5985 33.2424 57.246 35.1978 58.166 36.6946C60.5802 40.6238 59.2591 45.5885 57.3168 48.1914C53.4111 53.426 47.1646 59.1718 47.1646 59.1718C47.1646 59.1718 38.7845 68.3672 35.0177 70.59C33.5289 71.4681 31.9168 71.8928 30.3598 70.8705C28.8421 69.8718 28.247 67.8587 28.981 66.1942L28.9836 66.1916Z" fill="#E28B4C"/>
<path d="M58.9734 44.907C58.845 46.6527 57.9511 48.2333 56.8581 49.5649C55.7834 50.8887 54.6117 52.1233 53.2145 53.122C53.1936 53.1429 53.1516 53.1115 53.1752 53.0853C54.8371 51.1953 56.5671 49.3211 57.9197 47.1979C58.3391 46.4692 58.6694 45.6933 58.9236 44.8912C58.9289 44.8781 58.942 44.8703 58.9551 44.8755C58.9682 44.8807 58.976 44.8938 58.9734 44.907Z" fill="#B56B39"/>
<g style="mix-blend-mode:multiply" opacity="0.3">
<path d="M49.6234 89.1904C49.6234 89.1904 73.7966 90.7029 81.0313 46.4325C70.0849 80.9885 49.6234 89.1904 49.6234 89.1904Z" fill="#1A1A3D"/>
</g>
<path d="M81.4454 30.8859C80.9054 30.6421 79.0863 31.1008 79.0863 31.1008C79.0863 31.1008 77.9959 29.3472 77.3956 29.0667C76.8163 28.7941 75.4192 28.8046 74.8346 29.0667C74.5043 29.2135 73.7363 30.0025 73.7363 30.0025L74.4047 30.2017C72.4729 35.19 64.0062 55.0381 53.453 63.4655C52.0349 64.5978 49.6208 66.6765 48.8658 69.0907C48.4858 70.3095 48.7767 74.1969 48.7767 74.1969C48.7767 74.1969 46.8029 77.8063 46.5932 79.1432C45.7675 84.3516 49.6234 89.1931 49.6234 89.1931C58.1163 85.3791 68.4623 79.7959 75.7311 63.9032C82.1977 49.7642 82.6748 32.5792 82.6748 32.5792C82.6748 32.5792 81.9225 31.1034 81.4454 30.8859Z" fill="#D63941"/>
<path d="M82.2764 34.4377C82.1479 35.2005 82.0168 35.9606 81.8805 36.7208C81.6106 38.2333 81.3144 39.7431 80.9972 41.2451C80.5123 43.5413 80.0142 45.8375 79.4218 48.1102C77.1125 56.9857 73.9119 65.9321 68.347 73.3345C66.5383 75.7382 64.5934 78.0213 62.3784 80.0685C58.5068 83.6491 54.0533 86.3936 49.5526 89.1013C49.6339 89.4159 50.3626 88.9965 50.5723 88.9021C50.9445 88.7344 51.1437 88.598 51.5133 88.425C52.2106 88.0974 52.9052 87.7619 53.592 87.4132C55.0441 86.6793 56.4701 85.8929 57.8567 85.0358C60.5173 83.3922 63.0128 81.484 65.267 79.3162C70.2055 74.5665 73.8805 68.7185 76.5411 62.4353C78.1715 58.5847 79.3589 54.5637 80.3078 50.4955C81.6237 44.8598 82.4048 39.0563 82.6722 33.2712C82.6827 33.0379 82.6617 32.8046 82.6722 32.574C82.5909 32.7811 82.3366 34.0524 82.2737 34.4351L82.2764 34.4377Z" fill="#FFCB64"/>
<path d="M48.795 69.4052C49.0205 69.0802 49.9379 67.6595 50.2053 67.3659C50.837 66.666 51.5605 66.0395 52.3101 65.4681C53.8016 64.3357 55.3901 63.3606 56.7977 62.1155C61.0966 58.3226 64.4387 53.5912 67.2539 48.6292C69.9774 43.8296 72.3392 38.6212 73.8516 33.2581C74.1531 32.186 74.8031 30.359 74.6511 30.0287C74.5253 29.7588 74.0639 29.9265 73.7389 29.9999C74.0089 30.1415 74.077 30.1703 74.2763 30.2673C72.9578 33.5622 71.4741 36.8021 69.8961 39.979C67.1491 45.5125 64.0612 50.9464 60.3391 55.89C58.533 58.2885 56.5566 60.5978 54.2918 62.5742C52.1555 64.438 49.82 66.1156 48.9182 68.9439C48.9182 68.9439 48.8291 69.1064 48.8134 69.1641C48.7977 69.2217 48.795 69.4026 48.795 69.4026V69.4052Z" fill="#FFCB64"/>
<g style="mix-blend-mode:multiply" opacity="0.3">
<path d="M49.7519 73.8273C61.4846 66.3174 68.1636 56.8599 73.7154 44.2805C75.4428 40.3302 76.9028 36.2673 78.0981 32.1205C78.1034 32.089 78.1584 32.0995 78.1479 32.1336C74.9054 44.5767 69.3536 56.9411 60.1111 66.0867C58.5514 67.586 56.8974 68.9832 55.1753 70.2859C53.4452 71.5835 51.6602 72.805 49.7781 73.8744C49.7493 73.8928 49.7231 73.843 49.7519 73.8273Z" fill="#1A1A3D"/>
</g>
<g style="mix-blend-mode:multiply" opacity="0.3">
<path d="M49.8305 81.7225C56.6851 77.0933 62.963 71.4917 67.9617 64.8862C71.5502 60.1784 73.7992 54.6606 75.7128 49.0721C77.22 44.5714 78.3943 39.9633 79.3825 35.3184C78.3393 42.1573 76.334 49.3552 73.6184 55.8874C72.6852 58.0761 71.6315 60.2177 70.389 62.2518C68.5174 65.2951 66.1871 68.0343 63.7232 70.6136C61.2461 73.1851 58.5645 75.5547 55.7336 77.7303C53.8436 79.1746 51.896 80.5482 49.8541 81.7697C49.8253 81.788 49.7964 81.7408 49.8279 81.7251L49.8305 81.7225Z" fill="#1A1A3D"/>
</g>
<path d="M65.5343 30.8859H73.7965L73.4924 26.359H65.8384L65.5343 30.8859Z" fill="#E28B4C"/>
<mask id="mask0_5867_2097" style="mask-type:luminance" maskUnits="userSpaceOnUse" x="65" y="26" width="9" height="5">
<path d="M65.5343 30.8859H73.7965L73.4924 26.359H65.8384L65.5343 30.8859Z" fill="white"/>
</mask>
<g mask="url(#mask0_5867_2097)">
<path d="M65.2565 29.1768C65.343 29.203 65.4373 29.224 65.5369 29.2502C69.7545 30.3407 73.1805 28.4743 73.7336 26.7128V26.1335H65.4583L65.2565 29.1742V29.1768Z" fill="#D17C42"/>
</g>
<path d="M61.3168 20.2016C61.3168 20.2016 55.3456 28.5529 60.6484 31.2214C65.1701 33.4966 65.3064 32.6893 66.9866 34.1834C66.9866 34.1834 66.9997 31.8872 65.7179 29.6906L65.946 26.3092L61.3168 20.2016Z" fill="#00000A"/>
<path d="M66.0273 36.962C66.8687 38.4508 69.5502 38.5242 69.5502 38.5242C69.5502 38.5242 70.8713 36.1861 70.0299 34.6998C69.1885 33.2109 66.5069 33.1375 66.5069 33.1375C66.5069 33.1375 65.1858 35.4757 66.0273 36.962Z" fill="#00000A"/>
<path d="M67.9748 41.7562C68.4283 43.405 71.0129 44.1285 71.0129 44.1285C71.0129 44.1285 72.8608 42.1835 72.4074 40.5347C71.9539 38.886 69.3693 38.1625 69.3693 38.1625C69.3693 38.1625 67.5214 40.1075 67.9748 41.7562Z" fill="#00000A"/>
<path d="M73.6918 46.2674C73.3982 44.5846 70.8923 43.6173 70.8923 43.6173C70.8923 43.6173 68.8661 45.3788 69.1623 47.0616C69.4558 48.7445 71.9618 49.7117 71.9618 49.7117C71.9618 49.7117 73.988 47.9502 73.6918 46.2674Z" fill="#00000A"/>
<path d="M69.9171 52.4247C70.0534 54.1286 72.4571 55.3238 72.4571 55.3238C72.4571 55.3238 74.638 53.759 74.5017 52.0551C74.3654 50.3513 71.9617 49.156 71.9617 49.156C71.9617 49.156 69.7808 50.7209 69.9171 52.4247Z" fill="#00000A"/>
<path d="M58.6929 20.76C59.6995 21.6538 61.1517 21.6617 61.9407 20.7757C62.727 19.8897 62.5514 18.448 61.5449 17.5542C60.5383 16.6603 59.0861 16.6525 58.2971 17.5384C57.5107 18.4244 57.6864 19.8661 58.6929 20.76Z" fill="#E28B4C"/>
<path d="M58.9 18.2566C58.9 18.2566 60.7952 17.8949 61.2277 19.8609L58.9 18.2566Z" fill="#D17C42"/>
<path d="M79.1755 19.0194C78.3498 20.0811 76.9212 20.351 75.9854 19.6223C75.0496 18.8936 74.9631 17.4441 75.7888 16.3825C76.6145 15.3209 78.0431 15.0509 78.9789 15.7796C79.9147 16.5083 80.0012 17.9578 79.1755 19.0194Z" fill="#E28B4C"/>
<path d="M78.5202 16.5948C78.5202 16.5948 76.5909 16.5817 76.5201 18.5922L78.5202 16.5948Z" fill="#1A1A3D"/>
<path d="M69.6681 28.3931C65.073 28.8125 60.9708 25.397 60.5514 20.8019L59.9013 13.6905C59.4819 9.09539 62.8974 4.99313 67.4925 4.57373C72.0875 4.15433 76.1898 7.56982 76.6092 12.1649L77.2592 19.2763C77.6786 23.8714 74.2632 27.9737 69.6681 28.3931Z" fill="#E28B4C"/>
<path d="M69.4295 15.8818C70.4178 16.372 71.0285 17.4782 71.0075 18.5686C71.0075 18.6708 70.9577 18.7626 70.887 18.8229C70.4912 19.1322 70.0587 19.3996 69.579 19.5621C69.5554 19.5699 69.5344 19.5385 69.5527 19.5201L70.5619 18.4926L70.5488 18.5267C70.4859 18.0496 70.3339 17.5883 70.1347 17.1505C69.9328 16.7128 69.6838 16.2934 69.3902 15.9107C69.3719 15.8844 69.406 15.8582 69.4295 15.8766V15.8818Z" fill="black"/>
<path d="M71.4793 21.258C70.8188 22.0575 69.7991 22.5529 68.6772 22.5215C67.5553 22.49 66.5671 21.9343 65.9537 21.0981L71.4793 21.258Z" fill="white"/>
<path d="M63.6524 16.9329C63.4532 15.6643 64.368 14.5633 65.6655 15.14C66.2684 15.4677 66.5672 16.1571 66.6878 16.7993L66.6196 16.8097C66.3025 16.4428 66.0299 16.1204 65.7546 15.9133C65.2828 15.5725 64.7586 15.583 64.3392 15.908C64.1242 16.1099 63.925 16.4847 63.7205 16.9251L63.6524 16.9329Z" fill="black"/>
<path d="M73.4427 16.0365C73.1622 15.6406 72.9001 15.3077 72.6511 15.1478C72.1793 14.9041 71.6629 14.988 71.2592 15.41C71.0285 15.6642 70.8162 16.0312 70.5724 16.448H70.5043C70.5043 15.7953 70.6747 15.064 71.2094 14.6315C71.7441 14.2068 72.6301 14.2383 73.0705 14.7887C73.3641 15.1426 73.4846 15.5908 73.5135 16.0312H73.4453L73.4427 16.0365Z" fill="black"/>
<path d="M77.2933 9.42828C75.946 5.5462 71.5004 2.85155 67.3719 3.22639C63.2434 3.60385 59.3587 7.05867 58.7375 11.1216C58.3836 13.4283 60.1634 17.3235 60.1634 17.3235C61.0049 12.7599 61.8017 11.5096 61.8017 11.5096C61.8017 11.5096 66.5069 10.6026 67.7441 7.29982C69.5606 10.3247 74.3497 10.3641 74.3497 10.3641C74.3497 10.3641 75.3588 11.4493 77.0128 15.7848C77.0128 15.7848 78.0587 11.6301 77.2933 9.42566V9.42828Z" fill="#00000A"/>
<path d="M66.2814 8.32477C64.2211 9.49647 60.0402 9.73238 59.6182 9.72714C59.7387 9.38113 59.8934 9.04299 60.069 8.71796C60.3259 8.72844 62.9314 8.82019 66.2814 8.32477Z" fill="#191919"/>
<path d="M69.3667 8.04425C71.6053 8.82276 75.7599 8.29851 76.1741 8.21725C75.9932 7.90008 75.7809 7.59601 75.5476 7.30505C75.2986 7.36272 72.7507 7.92367 69.3667 8.04425Z" fill="#191919"/>
<path d="M68.8843 12.0364C68.9315 12.5476 68.6537 12.9932 68.2657 13.0273C67.8778 13.064 67.5239 12.676 67.4793 12.1649C67.4322 11.6537 67.71 11.2081 68.098 11.174C68.4859 11.1373 68.8398 11.5253 68.8843 12.0364Z" fill="#D63941" fill-opacity="0.866667"/>
<path d="M107.425 122.661L108.743 96.2495L110.549 122.661H126.329L124.817 81.7461H92.8139L91.844 122.661H107.425Z" fill="#C18B49"/>
<path d="M125.417 97.9926C119.302 99.0385 113.75 99.4448 108.963 99.4972L108.743 96.2495L108.581 99.4999C100.856 99.5523 95.1782 98.6873 92.4259 98.1525L92.8138 81.7461H124.817L125.417 97.9926Z" fill="#AF793E"/>
<g style="mix-blend-mode:multiply" opacity="0.3">
<path d="M117.194 101.13C117.451 104.042 117.842 108.286 118.117 111.24C118.366 114.58 118.625 118.066 118.413 121.408C118.413 121.419 118.402 121.429 118.392 121.429C118.258 114.716 117.123 107.752 117.194 101.133V101.13Z" fill="#1A1A3D"/>
</g>
<g style="mix-blend-mode:multiply" opacity="0.3">
<path d="M100.227 101.133C99.9567 107.906 99.4797 114.714 99.3774 121.471C99.3669 121.471 99.3591 121.463 99.3591 121.45C99.0655 117.285 99.2359 112.905 99.5111 108.732C99.5924 107.256 99.7811 105.154 99.9122 103.662C99.9934 102.931 100.093 101.854 100.187 101.13C100.187 101.107 100.229 101.107 100.227 101.13V101.133Z" fill="#1A1A3D"/>
</g>
<path d="M99.9934 35.1873C97.1074 31.7902 91.6447 32.0366 89.0549 35.6461C86.8347 38.7391 85.6211 43.059 84.4572 46.6029C83.1676 50.5269 82.2999 54.3697 82.9133 58.5349C83.414 62.0971 86.473 65.1063 90.0353 64.6083C93.3171 64.147 95.6841 60.5925 95.6474 57.2504C96.7116 54.1836 99.2175 46.9096 100.25 44.4273C101.553 41.2975 102.471 38.1074 99.9934 35.19V35.1873Z" fill="#D63941"/>
<path d="M117.946 35.1873C120.832 31.7902 126.295 32.0366 128.885 35.6461C131.105 38.7391 132.319 43.059 133.483 46.6029C134.772 50.5269 135.262 54.5899 134.615 58.2282C133.983 61.7695 131.467 65.1063 127.905 64.6057C124.623 64.1443 122.256 60.5899 122.293 57.2478C121.228 54.1809 118.722 46.907 117.69 44.4246C116.387 41.2949 115.469 38.1048 117.946 35.1873Z" fill="#D63941"/>
<path d="M95 59.1823L95.0761 41.9948L93.7576 32.8492C100.347 29.7325 105.302 29.6565 108.699 29.6565C112.096 29.6565 117.05 29.7325 123.642 32.8492L122.321 41.9948L122.397 59.1823C122.397 59.1823 125.585 79.442 126.295 95.4474H91.1049C91.8126 79.442 95 59.1823 95 59.1823Z" fill="#D63941"/>
<path d="M126.324 96.1289C105.535 98.6007 91.0759 96.1289 91.0759 96.1289C91.1074 95.3215 91.1467 94.5011 91.1913 93.6702C92.5963 93.8956 106.562 95.9847 126.206 93.6649C126.253 94.4959 126.292 95.3189 126.324 96.1289Z" fill="#FFCB64"/>
<path d="M111.147 38.3486C113.325 37.5517 113.495 34.0235 111.999 32.5163C111.771 32.2751 111.477 32.1048 111.142 31.992C111.121 31.9868 111.128 31.9501 111.149 31.9553C113.401 32.359 113.876 35.4888 112.824 37.2005C112.468 37.8034 111.87 38.3119 111.149 38.3879C111.126 38.3879 111.121 38.3538 111.144 38.3486H111.147Z" fill="#B12F1D"/>
<path d="M111.147 44.7445C113.325 43.9476 113.495 40.4194 111.999 38.9122C111.771 38.671 111.477 38.5006 111.142 38.3879C111.121 38.3827 111.128 38.346 111.149 38.3512C113.401 38.7549 113.876 41.8847 112.824 43.5963C112.468 44.1992 111.87 44.7078 111.149 44.7838C111.126 44.7838 111.121 44.7497 111.144 44.7445H111.147Z" fill="#B12F1D"/>
<path d="M111.147 51.1377C113.325 50.3408 113.495 46.8126 111.999 45.3054C111.771 45.0643 111.477 44.8939 111.142 44.7812C111.121 44.7759 111.128 44.7392 111.149 44.7445C113.401 45.1481 113.876 48.2779 112.824 49.9896C112.468 50.5925 111.87 51.101 111.149 51.177C111.126 51.177 111.121 51.143 111.144 51.1377H111.147Z" fill="#B12F1D"/>
<path d="M111.147 57.5309C113.325 56.7341 113.495 53.2059 111.999 51.6986C111.771 51.4575 111.477 51.2871 111.142 51.1744C111.121 51.1691 111.128 51.1324 111.149 51.1377C113.401 51.5414 113.876 54.6711 112.824 56.3828C112.468 56.9857 111.87 57.4942 111.149 57.5702C111.126 57.5702 111.121 57.5362 111.144 57.5309H111.147Z" fill="#B12F1D"/>
<path d="M111.147 63.9242C113.325 63.1273 113.495 59.5991 111.999 58.0919C111.771 57.8507 111.477 57.6803 111.142 57.5676C111.121 57.5624 111.128 57.5257 111.149 57.5309C113.401 57.9346 113.876 61.0644 112.824 62.7761C112.468 63.379 111.87 63.8875 111.149 63.9635C111.126 63.9635 111.121 63.9294 111.144 63.9242H111.147Z" fill="#B12F1D"/>
<path d="M111.147 70.3174C113.325 69.5206 113.495 65.9924 111.999 64.4851C111.771 64.244 111.477 64.0736 111.142 63.9609C111.121 63.9556 111.128 63.9189 111.149 63.9242C113.401 64.3279 113.876 67.4576 112.824 69.1693C112.468 69.7722 111.87 70.2807 111.149 70.3567C111.126 70.3567 111.121 70.3227 111.144 70.3174H111.147Z" fill="#B12F1D"/>
<path d="M111.147 76.7106C113.325 75.9138 113.495 72.3856 111.999 70.8784C111.771 70.6372 111.477 70.4668 111.142 70.3541C111.121 70.3489 111.128 70.3122 111.149 70.3174C113.401 70.7211 113.876 73.8509 112.824 75.5625C112.468 76.1654 111.87 76.674 111.149 76.75C111.126 76.75 111.121 76.7159 111.144 76.7106H111.147Z" fill="#B12F1D"/>
<path d="M111.147 83.1039C113.325 82.3071 113.495 78.7789 111.999 77.2716C111.771 77.0305 111.477 76.8601 111.142 76.7474C111.121 76.7421 111.128 76.7054 111.149 76.7107C113.401 77.1144 113.876 80.2441 112.824 81.9558C112.468 82.5587 111.87 83.0672 111.149 83.1432C111.126 83.1432 111.121 83.1092 111.144 83.1039H111.147Z" fill="#B12F1D"/>
<path d="M111.147 89.4971C113.325 88.7003 113.495 85.1721 111.999 83.6649C111.771 83.4237 111.477 83.2533 111.142 83.1406C111.121 83.1354 111.128 83.0987 111.149 83.1039C113.401 83.5076 113.876 86.6374 112.824 88.349C112.468 88.9519 111.87 89.4605 111.149 89.5365C111.126 89.5365 111.121 89.5024 111.144 89.4971H111.147Z" fill="#B12F1D"/>
<path d="M111.149 89.4997C113.393 89.8929 113.86 92.9886 112.84 94.6977C112.827 94.7187 112.796 94.7003 112.806 94.6793C113.273 92.8733 113.045 90.3988 111.147 89.539C111.123 89.5364 111.126 89.4971 111.152 89.4997H111.149Z" fill="#B12F1D"/>
<path d="M105.131 94.7423C104.069 93.0358 104.533 89.8956 106.793 89.4998C106.817 89.4998 106.822 89.5338 106.798 89.5391C105.356 90.142 104.919 91.7907 104.932 93.2115C104.945 93.7069 105.021 94.2075 105.168 94.7292C105.176 94.7475 105.144 94.7632 105.134 94.7449L105.131 94.7423Z" fill="#B12F1D"/>
<path d="M106.796 83.1432C104.617 83.9401 104.447 87.4683 105.944 88.9755C106.172 89.2167 106.465 89.3871 106.801 89.4998C106.822 89.505 106.814 89.5417 106.793 89.5365C104.541 89.1328 104.067 86.003 105.118 84.2913C105.475 83.6885 106.072 83.1799 106.793 83.1039C106.817 83.1039 106.822 83.138 106.798 83.1432H106.796Z" fill="#B12F1D"/>
<path d="M106.796 76.75C104.617 77.5468 104.447 81.0751 105.944 82.5823C106.172 82.8234 106.463 82.9938 106.801 83.1065C106.822 83.1118 106.814 83.1485 106.793 83.1432C104.541 82.7395 104.067 79.6098 105.118 77.8981C105.475 77.2952 106.072 76.7867 106.793 76.7107C106.817 76.7107 106.822 76.7447 106.798 76.75H106.796Z" fill="#B12F1D"/>
<path d="M106.796 70.3567C104.617 71.1536 104.447 74.6818 105.944 76.189C106.172 76.4302 106.465 76.6006 106.801 76.7133C106.822 76.7185 106.814 76.7552 106.793 76.75C104.541 76.3463 104.067 73.2165 105.118 71.5048C105.475 70.902 106.072 70.3934 106.793 70.3174C106.817 70.3174 106.822 70.3515 106.798 70.3567H106.796Z" fill="#B12F1D"/>
<path d="M106.796 63.9635C104.617 64.7604 104.447 68.2886 105.944 69.7958C106.172 70.037 106.463 70.2073 106.801 70.3201C106.822 70.3253 106.814 70.362 106.793 70.3568C104.541 69.9531 104.067 66.8233 105.118 65.1116C105.475 64.5087 106.072 64.0002 106.793 63.9242C106.817 63.9242 106.822 63.9583 106.798 63.9635H106.796Z" fill="#B12F1D"/>
<path d="M106.796 57.5702C104.617 58.3671 104.447 61.8953 105.944 63.4025C106.172 63.6437 106.465 63.8141 106.801 63.9268C106.822 63.932 106.814 63.9687 106.793 63.9635C104.541 63.5598 104.067 60.43 105.118 58.7183C105.475 58.1155 106.072 57.6069 106.793 57.5309C106.817 57.5309 106.822 57.565 106.798 57.5702H106.796Z" fill="#B12F1D"/>
<path d="M106.796 51.177C104.617 51.9739 104.447 55.5021 105.944 57.0093C106.172 57.2505 106.463 57.4208 106.801 57.5336C106.822 57.5388 106.814 57.5755 106.793 57.5703C104.541 57.1666 104.067 54.0368 105.118 52.3251C105.475 51.7222 106.072 51.2137 106.793 51.1377C106.817 51.1377 106.822 51.1718 106.798 51.177H106.796Z" fill="#B12F1D"/>
<path d="M106.796 44.7812C104.617 45.578 104.447 49.1062 105.944 50.6135C106.172 50.8546 106.465 51.025 106.801 51.1377C106.822 51.1429 106.814 51.1796 106.793 51.1744C104.541 50.7707 104.067 47.6409 105.118 45.9293C105.475 45.3264 106.072 44.8179 106.793 44.7418C106.817 44.7418 106.822 44.7759 106.798 44.7812H106.796Z" fill="#B12F1D"/>
<path d="M106.796 38.3879C104.617 39.1848 104.447 42.713 105.944 44.2202C106.172 44.4614 106.463 44.6318 106.801 44.7445C106.822 44.7497 106.814 44.7864 106.793 44.7812C104.541 44.3775 104.067 41.2477 105.118 39.536C105.475 38.9332 106.072 38.4246 106.793 38.3486C106.817 38.3486 106.822 38.3827 106.798 38.3879H106.796Z" fill="#B12F1D"/>
<path d="M106.796 31.9949C104.617 32.7918 104.447 36.32 105.944 37.8272C106.172 38.0684 106.463 38.2388 106.801 38.3515C106.822 38.3567 106.814 38.3934 106.793 38.3882C104.541 37.9845 104.067 34.8547 105.118 33.1431C105.475 32.5402 106.072 32.0316 106.793 31.9556C106.817 31.9556 106.822 31.9897 106.798 31.9949H106.796Z" fill="#B12F1D"/>
<path d="M110.806 32.2358H107.136V96.2311H110.806V32.2358Z" fill="#FFCB64"/>
<g style="mix-blend-mode:multiply" opacity="0.3">
<path d="M108.971 32.2358C109.267 53.122 109.27 76.3411 108.971 97.2272C108.672 76.3411 108.675 53.122 108.971 32.2358Z" fill="#1A1A3D"/>
</g>
<g style="mix-blend-mode:multiply" opacity="0.3">
<path d="M122.376 59.1823C122.358 54.894 122.264 46.2386 122.319 41.9738C122.447 42.6684 122.437 43.426 122.51 44.1416C122.662 46.8782 122.735 49.9922 122.691 52.734C122.696 53.9844 122.623 55.7668 122.57 57.0303C122.518 57.7485 122.489 58.4641 122.416 59.1823C122.416 59.2059 122.376 59.2059 122.376 59.1823Z" fill="#1A1A3D"/>
</g>
<g style="mix-blend-mode:multiply" opacity="0.3">
<path d="M95.0943 41.9947C95.0733 46.2831 95.0943 54.9385 94.9973 59.2007C94.8741 58.506 94.8925 57.7485 94.8243 57.0329C94.6985 54.2963 94.6513 51.1796 94.7221 48.4378C94.7273 47.1875 94.8191 45.4076 94.882 44.1416C94.9397 43.426 94.9764 42.7077 95.055 41.9921C95.055 41.9685 95.0943 41.9712 95.0943 41.9921V41.9947Z" fill="#1A1A3D"/>
</g>
<path d="M101.045 71.9269C94.9685 70.1706 88.7064 67.3344 84.646 62.3095C82.2345 59.3239 82.6985 54.9464 85.6841 52.5322C88.6697 50.1206 93.0472 50.5846 95.4613 53.5702C96.3473 54.6659 97.0446 55.9293 97.9044 57.0538C99.5715 59.2295 101.364 61.3055 103.068 63.4497C103.936 64.5428 105.026 65.6909 105.532 67.0015C106.615 69.8115 103.967 72.7578 101.042 71.9269H101.045Z" fill="#D63941"/>
<g style="mix-blend-mode:multiply" opacity="0.3">
<path d="M101.037 71.9531C96.3971 71.206 91.802 69.282 88.2634 66.1496C87.844 65.7407 87.2227 65.1378 86.8557 64.687C86.8322 64.666 86.8662 64.624 86.8898 64.6476C88.8741 66.4458 91.1598 67.8823 93.5609 69.0487C95.9594 70.2309 98.4836 71.1483 101.05 71.9006C101.081 71.9085 101.068 71.9609 101.034 71.9505L101.037 71.9531Z" fill="#1A1A3D"/>
</g>
<g style="mix-blend-mode:multiply" opacity="0.3">
<path d="M95.034 53.1141C93.6002 53.101 92.1506 53.4103 90.9029 54.1128C90.3315 54.4745 89.7076 54.9044 88.9789 54.7629C88.2607 54.6449 88.1008 53.9241 88.549 53.3946C89.5058 52.1731 91.6421 52.3592 92.9894 52.582C93.013 52.5872 93.0104 52.6213 92.9842 52.6213C91.7181 52.5951 89.684 52.5086 88.8452 53.6069C88.4337 54.1521 88.8059 54.4745 89.4062 54.3933C89.9095 54.3487 90.2896 54.008 90.7221 53.7799C92.0301 53.0774 93.5819 52.8389 95.0445 53.0774C95.055 53.0774 95.0629 53.0905 95.0602 53.101C95.0576 53.1115 95.0471 53.1193 95.0366 53.1167L95.034 53.1141Z" fill="#1A1A3D"/>
</g>
<g style="mix-blend-mode:multiply" opacity="0.3">
<path d="M95.055 53.0774C96.1926 54.0316 97.0209 55.2845 97.899 56.4117C98.6723 57.3684 99.865 58.7813 100.662 59.7538C101.577 60.8861 102.497 62.0185 103.346 63.2033C104.185 64.3672 105.186 65.5677 105.558 66.9937C105.564 67.0094 105.556 67.0251 105.54 67.0277C104.953 65.704 103.949 64.5821 103.026 63.4576C102.117 62.3226 101.186 61.2059 100.258 60.084C98.8715 58.4012 97.5111 56.6843 96.3446 54.8389C95.9357 54.2413 95.5242 53.6357 95.0209 53.1141C94.9973 53.0931 95.034 53.0512 95.0576 53.0774H95.055Z" fill="#1A1A3D"/>
</g>
<path d="M111.873 63.2689C113.118 61.7695 115.102 60.5952 116.636 59.4025C119.113 57.4759 121.268 55.2111 123.716 53.2871C126.526 51.0774 130.597 51.5676 132.804 54.3776C134.612 56.679 134.607 59.8272 133.006 62.105C129.509 67.0671 122.646 69.3633 116.859 69.9426C115.055 70.1235 112.919 70.4013 111.506 69.0016C109.7 67.2139 110.458 64.9753 111.873 63.2715V63.2689Z" fill="#D63941"/>
<g style="mix-blend-mode:multiply" opacity="0.3">
<path d="M133.029 62.1181C130.466 66.6188 125.278 68.9203 120.348 69.7171C119.669 69.8272 118.72 69.9059 118.028 69.9452C117.64 69.9661 117.249 69.9661 116.861 69.9661C116.83 69.9661 116.827 69.9163 116.861 69.9137C121.42 69.4131 126.015 68.0684 129.755 65.3423C130.987 64.4274 132.101 63.3422 132.992 62.0867C133.008 62.0604 133.055 62.0867 133.034 62.1181H133.029Z" fill="#1A1A3D"/>
</g>
<g style="mix-blend-mode:multiply" opacity="0.3">
<path d="M111.855 63.2531C113.087 61.2662 115.17 60.0552 116.914 58.5794C118.704 57.1456 120.41 55.5886 122.363 54.3697C122.387 54.354 122.418 54.3933 122.395 54.4116C120.659 55.9136 119.026 57.5283 117.246 58.9857C116.358 59.7171 115.404 60.3593 114.476 61.0303C113.551 61.704 112.638 62.4117 111.897 63.2872C111.878 63.3108 111.834 63.2794 111.857 63.2531H111.855Z" fill="#1A1A3D"/>
</g>
<g style="mix-blend-mode:multiply" opacity="0.3">
<path d="M122.353 54.388C123.784 53.9503 125.378 53.9581 126.77 54.5296C127.231 54.7078 127.635 55.0355 128.143 55.0617C128.701 55.122 129.184 54.8127 128.73 54.2727C127.826 53.2006 125.763 53.4522 124.497 53.5807C124.473 53.5859 124.466 53.5466 124.492 53.5413C125.834 53.2058 127.999 52.8572 129.016 54.0446C129.179 54.2334 129.346 54.5427 129.27 54.8415C129.139 55.3579 128.547 55.4811 128.114 55.4444C127.564 55.4286 127.11 55.0905 126.625 54.8782C125.294 54.3015 123.8 54.2124 122.368 54.4247C122.345 54.4326 122.329 54.3959 122.355 54.388H122.353Z" fill="#1A1A3D"/>
</g>
<path d="M114.783 74.5114C114.604 74.1785 114.479 73.7853 114.473 73.4052C114.148 73.7748 113.724 74.0789 113.328 74.3777C112.68 74.8626 111.671 75.7853 110.819 75.8928C110.334 75.9505 109.815 75.7906 109.42 75.5153L108.764 75.9321C108.327 76.2178 107.918 76.3908 107.391 76.1785C107.165 76.092 106.922 75.9243 106.806 75.7146C106.494 76.0606 106.015 76.3515 105.538 76.3515C105.511 76.3515 105.488 76.3515 105.464 76.3489C104.84 76.3148 104.269 75.7408 104.486 75.0986C104.599 74.7578 104.893 74.4118 105.079 74.1077L105.87 72.7552C105.396 72.8128 104.906 72.8679 104.437 72.9177C103.663 73.0042 102.856 73.054 102.091 72.8705C101.789 72.7997 101.488 72.6896 101.22 72.5297C101.155 72.4904 100.536 71.9478 100.489 71.9059C100.644 72.2099 101.066 72.5874 101.15 72.6477C101.519 72.9098 101.965 73.0671 102.403 73.1641C103.294 73.3607 104.224 73.2899 105.123 73.1981C104.793 73.6988 104.405 74.2152 104.125 74.7499C103.608 75.7329 104.374 76.7945 105.435 76.86C105.789 76.8863 106.135 76.7893 106.421 76.6399C106.549 76.5743 106.665 76.4983 106.777 76.4144C107.498 76.9806 108.35 76.8181 109.047 76.3437C109.129 76.2886 109.338 76.0815 109.441 76.071C109.556 76.0579 109.996 76.2886 110.13 76.3122C110.369 76.3594 110.631 76.3725 110.874 76.3384C111.428 76.2598 111.863 75.8876 112.3 75.5678C113.008 75.054 113.745 74.5245 114.342 73.8797C114.526 74.5612 114.94 75.0435 115.488 75.1588C115.173 75.0697 114.932 74.7892 114.783 74.5114Z" fill="#B56B39"/>
<path d="M117.357 70.7239L117.021 72.6479C116.851 73.6178 116.623 75.2927 115.627 75.2115C114.919 75.1538 114.473 74.1708 114.465 73.4212C113.952 74.0241 112.835 74.8157 111.446 75.7148C110.835 76.108 110.015 75.9716 109.422 75.5522L108.492 76.1735C107.949 76.4854 107.102 76.3019 106.809 75.7462C106.809 75.7462 105.994 76.7554 104.963 76.2705C104.536 76.0686 104.216 75.45 104.492 74.9887L105.849 72.7659C105.299 72.8209 103.653 73.1695 102.387 72.9624C100.18 72.606 100.025 70.8707 100.028 70.5037C100.041 69.2612 101.194 67.6544 104.03 67.3451C105.737 67.159 108.937 67.3084 109.454 67.3477C110.287 67.4133 112.652 68.3333 112.652 68.3333C113.074 68.4644 113.412 68.7763 113.577 69.1852C113.577 69.1852 115.915 69.4342 116.657 69.5732C117.16 69.6675 117.448 70.218 117.359 70.7239H117.357Z" fill="#E28B4C"/>
<path d="M116.992 69.7276C117.126 69.8325 117.121 70.0448 116.982 70.1418C116.442 70.5245 115.76 70.5166 115.341 70.4747C114.389 70.3856 113.365 69.9635 112.688 69.6752C112.479 69.5861 112.266 69.7879 112.342 70.0028C112.521 70.5035 112.749 71.2401 112.777 71.7591C112.806 72.2964 112.536 72.86 112.009 73.0225C111.338 73.2296 110.814 72.8364 110.51 72.5061C110.342 72.3227 110.083 72.2807 109.844 72.3515C109.42 72.4799 108.877 72.3148 108.486 72.0553C108.311 71.94 108.064 71.6673 107.881 71.4524C107.731 71.2768 107.501 71.2086 107.275 71.2506C106.638 71.3738 105.865 71.261 105.414 70.8574C105.018 70.5035 104.35 69.7696 103.826 69.1326C103.572 68.8233 103.11 68.763 102.801 69.0173C102.549 69.2243 102.258 69.3423 101.965 69.2925C101.522 69.2165 101.32 68.8338 101.239 68.3462C101.878 67.8587 102.796 67.4786 104.028 67.3449C105.734 67.1562 108.935 67.3056 109.451 67.3475C110.287 67.4131 112.649 68.3331 112.649 68.3331C113.071 68.4642 113.409 68.7761 113.574 69.185C113.574 69.185 114.159 69.2479 114.835 69.3266C115.514 69.4052 116.285 69.5048 116.654 69.573C116.783 69.5966 116.898 69.6516 116.995 69.7276H116.992Z" fill="#B56B39"/>
<path d="M106.908 75.6202C107.202 74.7421 107.689 73.9557 108.219 73.2034L108.164 73.3214C108.392 72.4747 108.659 71.6542 109.115 70.8888C109.123 70.8679 109.16 70.8731 109.155 70.8993C109.147 70.9151 108.549 73.4184 108.539 73.4288L106.942 75.6412C106.929 75.6595 106.898 75.6412 106.911 75.6176L106.908 75.6202Z" fill="#B56B39"/>
<path d="M109.404 75.5363C109.994 74.5743 110.769 73.7722 111.595 73.0252L111.488 73.2768C111.514 72.4354 111.59 71.6044 111.815 70.784C111.815 70.7604 111.855 70.7578 111.855 70.784L111.868 73.2768C111.868 73.2873 111.863 73.2978 111.857 73.303C111.163 73.9688 110.143 74.8994 109.43 75.5652C109.412 75.5809 109.385 75.5547 109.404 75.5363Z" fill="#B56B39"/>
<path d="M114.444 73.4131C114.473 73.054 114.552 72.7132 114.652 72.3725L114.646 72.5822C114.203 71.8141 113.876 70.9649 113.676 70.1025C113.616 69.8063 113.564 69.5048 113.553 69.1876C113.553 69.1693 113.582 69.1588 113.59 69.1798C113.983 70.1601 114.573 71.5179 114.916 72.4957L114.479 73.4315C114.468 73.4524 114.437 73.4393 114.442 73.4157L114.444 73.4131Z" fill="#B56B39"/>
<path d="M100.604 63.4628L100.442 65.4104C100.361 66.3934 100.156 68.071 101.142 68.244C101.842 68.3672 102.52 67.5284 102.72 66.8076C103.063 67.5205 103.944 68.5717 105.06 69.7932C105.551 70.3305 106.379 70.4065 107.058 70.1497L107.8 70.9858C108.245 71.4236 109.11 71.4603 109.535 71.0016C109.535 71.0016 110.067 72.1864 111.186 71.9767C111.65 71.8902 112.117 71.3712 111.967 70.8574L111.218 68.362C111.734 68.5559 113.239 69.3082 114.518 69.4314C116.743 69.6464 117.333 68.0081 117.425 67.6516C117.729 66.4458 117.019 64.6005 114.355 63.5808C112.754 62.9674 109.619 62.299 109.108 62.2073C108.285 62.0605 105.766 62.3488 105.766 62.3488C105.325 62.3672 104.916 62.5847 104.654 62.9386C104.654 62.9386 102.329 62.5847 101.577 62.5323C101.066 62.4956 100.649 62.9543 100.604 63.4655V63.4628Z" fill="#E28B4C"/>
<path d="M109.43 70.8653C108.861 70.1287 108.479 69.2794 108.151 68.417C108.114 67.5075 108.235 66.5953 108.497 65.7093C108.502 65.6909 108.536 65.6935 108.534 65.7145C108.534 65.7145 108.528 68.3515 108.521 68.2912L109.467 70.8496C109.475 70.8705 109.441 70.8863 109.43 70.8627V70.8653Z" fill="#B56B39"/>
<path d="M107.042 70.1576C106.214 69.3922 105.58 68.4747 105.008 67.518C104.956 67.4367 104.943 67.3345 104.966 67.248C105.202 66.4406 105.485 65.6543 105.91 64.9177C105.918 64.8967 105.954 64.902 105.949 64.9282L105.336 67.345C105.8 68.0108 106.576 69.3528 107.076 70.1392C107.089 70.1602 107.058 70.1812 107.042 70.1602V70.1576Z" fill="#B56B39"/>
<path d="M102.699 66.8102C102.518 66.4983 102.39 66.1732 102.279 65.8351C102.253 65.7617 102.293 65.6909 102.327 65.6306C102.909 64.5926 103.656 63.6149 104.636 62.9229C104.652 62.9071 104.683 62.9229 104.667 62.9465C104.064 63.7617 103.147 65.0723 102.568 65.7853L102.738 66.8023C102.741 66.8259 102.707 66.8338 102.699 66.8102Z" fill="#B56B39"/>
<path d="M103.592 29.7876V27.6591C103.592 27.6591 105.899 27.3629 108.971 27.3629C112.046 27.3629 114.347 27.6591 114.347 27.6591V29.7876H103.59H103.592Z" fill="#1A1A3D"/>
<path d="M104.84 30.8859L108.971 33.2765L113.102 30.8859L112.798 26.359H105.144L104.84 30.8859Z" fill="#E28B4C"/>
<path d="M111.244 28.2463L114.348 27.6591L114.657 30.0314C112.534 32.65 108.969 33.2765 108.969 33.2765L109.978 29.5071C110.143 28.8911 110.625 28.4088 111.241 28.2463H111.244Z" fill="#D63941"/>
<g style="mix-blend-mode:multiply" opacity="0.3">
<path d="M114.672 30.0418C113.608 32.0733 111.231 33.2948 108.974 33.2948C108.95 33.2948 108.942 33.2607 108.966 33.2555C110.586 32.899 112.14 32.1913 113.451 31.1716C113.894 30.8361 114.277 30.4324 114.641 30.0156C114.657 29.9973 114.688 30.0209 114.672 30.0392V30.0418Z" fill="#1A1A3D"/>
</g>
<path d="M106.699 28.2463L103.595 27.6591L103.286 30.0314C105.409 32.65 108.974 33.2765 108.974 33.2765L107.965 29.5071C107.799 28.8911 107.317 28.4088 106.701 28.2463H106.699Z" fill="#D63941"/>
<g style="mix-blend-mode:multiply" opacity="0.3">
<path d="M103.299 30.0182C104.735 31.7142 106.83 32.7706 108.974 33.2581C108.997 33.2634 108.992 33.3001 108.966 33.2974C106.882 33.363 104.048 31.9318 103.299 30.0209V30.0182Z" fill="#1A1A3D"/>
</g>
<path d="M97.6867 17.7246C98.709 18.815 100.318 18.9723 101.278 18.0706C102.24 17.1689 102.19 15.5542 101.168 14.4637C100.145 13.3733 98.536 13.216 97.5766 14.1177C96.6146 15.0194 96.6644 16.6341 97.6867 17.7246Z" fill="#E28B4C"/>
<path d="M98.1691 14.9749C98.1691 14.9749 100.305 14.7652 100.586 16.9854L98.1691 14.9749Z" fill="#D17C42"/>
<path d="M120.298 17.7246C119.275 18.815 117.666 18.9723 116.704 18.0706C115.742 17.1689 115.792 15.5542 116.814 14.4637C117.836 13.3733 119.446 13.216 120.405 14.1177C121.367 15.0194 121.317 16.6341 120.295 17.7246H120.298Z" fill="#E28B4C"/>
<path d="M119.818 14.9749C119.818 14.9749 117.682 14.7652 117.401 16.9854L119.818 14.9749Z" fill="#D17C42"/>
<path d="M108.971 28.013C104.321 28.013 100.515 24.2069 100.515 19.5568V12.3588C100.515 7.70874 104.321 3.90268 108.971 3.90268C113.621 3.90268 117.427 7.70874 117.427 12.3588V19.5568C117.427 24.2069 113.621 28.013 108.971 28.013Z" fill="#E28B4C"/>
<path d="M117.687 19.6381C117.595 18.7993 117.435 16.3222 117.425 16.1728C117.425 16.1675 117.425 16.1649 117.425 16.1649V11.1924H115.456C115.899 12.1858 116.416 15.4467 116.573 17.8373C116.316 19.0509 115.537 20.4087 114.308 21.3183C114.308 21.3183 112.038 19.2763 108.966 19.2763C105.894 19.2763 103.626 21.3183 103.626 21.3183C102.397 20.4087 101.619 19.0509 101.359 17.8373C101.519 15.4467 102.035 12.1858 102.478 11.1924H100.51V16.1728C100.502 16.3222 100.342 18.7993 100.25 19.6381C100.004 21.9107 100.578 23.2423 101.294 24.6237C103.624 29.1323 108.966 29.7325 108.966 29.7325C108.966 29.7325 114.311 29.1323 116.641 24.6237C117.357 23.2423 117.931 21.9107 117.684 19.6381H117.687ZM108.969 24.9382C107.883 24.9382 105.118 24.3222 106.219 21.0588H111.718C112.822 24.3222 110.054 24.9382 108.969 24.9382Z" fill="#00000A"/>
<path d="M109.592 14.4165C110.397 15.5332 110.819 16.9277 110.754 18.3012C110.746 18.4087 110.678 18.4978 110.586 18.5398C110.159 18.7102 109.726 18.8438 109.26 18.8884C109.239 18.8884 109.231 18.8622 109.249 18.8517L110.426 18.2305C110.368 17.7403 110.3 16.9067 110.138 16.3143C109.986 15.6748 109.792 15.0456 109.556 14.4323C109.548 14.4113 109.582 14.3956 109.592 14.4165Z" fill="black"/>
<path d="M111.721 21.0588C111.089 21.8845 110.09 22.4114 108.971 22.4114C107.852 22.4114 106.853 21.8845 106.224 21.0588H111.721Z" fill="white"/>
<path d="M111.105 22.4244C110.366 24.1623 107.574 24.1623 106.84 22.4244C106.827 22.4061 106.851 22.3799 106.869 22.3982C107.661 23.3104 109.031 23.6197 110.122 23.1007C110.484 22.9356 110.806 22.6918 111.076 22.3982C111.092 22.3799 111.121 22.4061 111.105 22.4244Z" fill="black"/>
<path d="M117.414 13.9735C117.157 13.9211 112.963 13.022 109.034 9.93943C103.797 11.4781 100.712 13.8241 100.523 13.9683C100.712 13.7953 103.797 10.9434 109.034 9.40732C112.963 12.4873 117.157 13.8923 117.414 13.9735Z" fill="#1A1A3D"/>
<path d="M118.783 9.43615C118.783 4.92498 114.389 0.0022583 108.971 0.0022583C103.553 0.0022583 99.1625 4.92498 99.1625 9.43615C99.1625 10.6524 99.574 11.8896 99.574 11.8896C99.574 11.8896 99.2306 13.5594 100.515 13.9735C100.515 13.9735 103.629 11.0482 109.034 9.46237C113.089 12.6446 117.427 13.9735 117.427 13.9735C119.467 13.1741 118.722 10.351 118.722 10.351C118.722 10.351 118.783 9.76381 118.783 9.43353V9.43615Z" fill="#0082B2"/>
<path d="M108.845 9.6904C107.862 8.80441 106.68 7.22642 106.106 6.33257C105.448 5.31028 104.903 4.21459 104.486 3.07697C104.352 2.7231 104.229 2.36399 104.13 1.99963C104.127 1.98915 104.132 1.97866 104.143 1.97604C104.153 1.97342 104.161 1.97604 104.166 1.98653C104.318 2.33778 104.478 2.67854 104.628 3.02454C105.797 5.71657 107.042 7.21593 108.261 8.63141C108.507 8.91713 108.78 9.17663 109.031 9.46497L108.843 9.6904H108.845Z" fill="#1A1A3D"/>
<path d="M106.984 1.29716C107.401 1.77423 107.805 2.25654 108.243 2.71002C108.659 3.17922 109.092 3.63532 109.537 4.07569C110.426 4.95905 111.33 5.81621 112.29 6.61045C113.249 7.40469 114.266 8.11505 115.32 8.77298C115.863 9.0718 116.4 9.39422 116.977 9.62751C117.53 9.93157 118.135 10.0862 118.725 10.3352H118.728C118.728 10.3352 118.743 10.3536 118.738 10.3615C118.735 10.3693 118.725 10.3746 118.714 10.3719C117.482 10.0836 116.292 9.63275 115.173 9.04035C114.067 8.42697 113.018 7.71137 112.038 6.91189C111.071 6.09668 110.159 5.21594 109.309 4.28015C108.463 3.34174 107.661 2.36139 106.95 1.31551C106.945 1.30765 106.948 1.29454 106.955 1.2893C106.963 1.28406 106.974 1.28406 106.982 1.29192L106.984 1.29716Z" fill="#1A1A3D"/>
<path d="M111.343 1.38364C111.959 1.6248 112.536 1.94459 113.076 2.31943C113.619 2.68902 114.13 3.10843 114.599 3.57239C115.058 4.04683 115.501 4.54749 115.844 5.12155C116.195 5.68774 116.458 6.32208 116.552 6.98002C116.552 6.99312 116.547 7.00361 116.536 7.00623C116.526 7.00623 116.518 7.00099 116.515 6.99312C116.298 6.38499 115.97 5.82667 115.595 5.30241C115.218 4.77816 114.777 4.30634 114.321 3.85024C113.868 3.39152 113.38 2.96688 112.88 2.56058C112.376 2.15691 111.86 1.76896 111.32 1.41509C111.312 1.40985 111.309 1.39675 111.315 1.38888C111.32 1.38102 111.33 1.3784 111.338 1.38102H111.341L111.343 1.38364Z" fill="#1A1A3D"/>
<path d="M99.5714 11.8896C100.004 11.3103 100.533 10.807 101.073 10.3274C101.619 9.85029 102.193 9.40467 102.788 8.98789C103.385 8.57636 104.007 8.19627 104.644 7.84503C105.281 7.49378 105.944 7.18971 106.617 6.90662L106.756 7.27359C106.085 7.51999 105.422 7.78998 104.777 8.10715C104.135 8.42432 103.506 8.77033 102.895 9.15303C102.287 9.53836 101.7 9.95251 101.136 10.4034C100.578 10.8568 100.03 11.3313 99.5714 11.8896Z" fill="#1A1A3D"/>
<path d="M99.6605 8.68125C100.311 7.71925 101.118 6.86209 102.033 6.13076C102.948 5.40206 103.98 4.80703 105.097 4.4086L105.218 4.78344C104.127 5.10585 103.089 5.62486 102.151 6.29066C101.212 6.95646 100.366 7.76118 99.6605 8.68387V8.68125Z" fill="#1A1A3D"/>
<path d="M105.529 16.3877C106.12 16.3877 106.599 15.8186 106.599 15.1164C106.599 14.4143 106.12 13.8451 105.529 13.8451C104.939 13.8451 104.46 14.4143 104.46 15.1164C104.46 15.8186 104.939 16.3877 105.529 16.3877Z" fill="#00000A"/>
<path d="M112.413 16.3877C113.004 16.3877 113.482 15.8186 113.482 15.1164C113.482 14.4143 113.004 13.8451 112.413 13.8451C111.822 13.8451 111.344 14.4143 111.344 15.1164C111.344 15.8186 111.822 16.3877 112.413 16.3877Z" fill="#00000A"/>
<path d="M21.1539 44.5636C20.2941 46.6894 22.4593 49.5676 22.4593 49.5676C22.4593 49.5676 26.0163 49.0014 26.8761 46.8755C27.7358 44.7497 25.5707 41.8716 25.5707 41.8716C25.5707 41.8716 22.0136 42.4377 21.1539 44.5636Z" fill="#3D3D3D"/>
<path d="M17.5208 51.1062C16.1709 52.9595 17.5706 56.278 17.5706 56.278C17.5706 56.278 21.1591 56.5925 22.5091 54.7393C23.859 52.8861 22.4592 49.5676 22.4592 49.5676C22.4592 49.5676 18.8707 49.253 17.5208 51.1062Z" fill="#3D3D3D"/>
<path d="M50.9995 103.35C49.0336 103.825 47.6915 102.787 46.6037 101.274C45.3586 99.5444 44.2288 97.7253 43.1515 95.8878C41.2721 92.6741 40.3468 89.3608 38.774 85.9873C38.1999 84.7527 37.7098 83.5993 37.3559 82.2913C36.6246 79.5914 35.9352 76.8863 35.3637 74.1497C34.8814 71.8351 34.4201 69.4681 34.1187 67.0959L48.0559 64.5716C48.1476 65.0094 48.2367 65.4393 48.3285 65.8561C49.1778 69.7067 49.7282 73.5992 50.2027 77.5102L50.3888 79.809L50.8082 81.442C51.8043 85.6675 52.9445 89.8222 53.5028 94.1341C53.8855 97.1669 55.1437 102.349 50.9995 103.35Z" fill="#E28B4C"/>
<path d="M48.9995 67.8796C41.7937 68.9098 36.6088 70.9727 34.7582 71.7905C34.1737 68.784 33.7019 65.7171 33.6285 62.6738C33.5629 59.9215 35.0125 57.316 37.4503 56.0001C39.9719 54.6371 42.3599 54.9097 44.6142 56.679C47.3114 58.7917 47.8698 62.624 48.5644 65.7721C48.719 66.472 48.8632 67.1745 48.9995 67.8796Z" fill="#D63941"/>
<path d="M50.6902 109.885C50.4674 111.204 49.9091 112.019 49.5578 112.611C49.1463 113.309 49.5473 114.708 50.5592 114.737C51.4687 114.763 52.4727 112.761 52.4727 112.761L50.6876 109.885H50.6902Z" fill="#B56B39"/>
<path d="M54.3705 114.554C54.3705 114.554 55.0389 111.657 55.031 109.335C55.0179 106.31 54.8449 102.394 54.4858 100.981C54.035 99.1958 53.8987 98.9913 53.8987 98.9913L47.1935 98.2259C47.1935 98.2259 45.2931 99.513 45.3901 101.382C45.4137 101.851 45.4215 102.307 45.4792 102.706C45.605 103.56 45.5526 105.196 45.5211 105.904C45.4818 106.766 45.3927 109.353 45.3927 109.353C45.3796 109.702 45.4949 110.029 45.6941 110.286C46.0008 110.68 46.5067 110.918 47.0703 110.85C47.8095 110.763 48.3468 110.113 48.373 109.387C48.373 109.387 48.4438 107.66 48.4596 107.086C48.4805 106.375 48.7662 105.571 49.3062 105.534C49.7859 105.5 50.5959 105.382 50.7767 108.525C50.837 109.571 50.2997 111.817 50.2997 111.817C50.1476 112.52 50.4255 113.503 51.4478 113.704V113.712C51.3849 113.982 51.4085 114.483 51.4923 114.729C51.6627 115.233 52.1057 115.634 52.685 115.728C53.4688 115.854 54.1949 115.311 54.3705 114.554Z" fill="#E28B4C"/>
<path d="M51.4504 113.686C51.8435 113.678 52.2367 113.542 52.3888 113.246C52.5434 112.949 52.6692 112.517 52.7872 112.181C53.55 109.935 53.6653 107.586 53.6863 105.222C53.681 105.198 53.723 105.191 53.7256 105.217C53.9641 106.795 54.0087 108.415 53.7387 109.993C53.5133 111.167 53.162 112.347 52.5513 113.377C52.2918 113.71 51.8331 113.796 51.4399 113.725C51.4137 113.718 51.4215 113.683 51.4477 113.686H51.4504Z" fill="#B56B39"/>
<path d="M45.0913 67.6647C45.4426 63.1483 42.2263 55.5021 42.1922 55.4392H42.1896C37.2223 51.3343 31.7884 51.2583 28.1161 51.2189C24.7242 51.1822 19.5393 51.2818 14.8551 54.6554C12.7896 56.1443 13.4082 59.5965 12.3256 63.8036C11.2011 68.1758 9.956 73.6464 9.55495 81.2611C9.35574 85.0803 9.8197 93.9454 9.8197 93.9454H42.069L42.0061 80.9911L42.6457 72.0736C43.9222 70.9963 44.9445 69.5546 45.0913 67.6647Z" fill="#D63941"/>
<g style="mix-blend-mode:multiply" opacity="0.3">
<path d="M41.9877 80.9885L42.6115 72.071C43.7046 71.1116 44.6456 69.8927 44.9444 68.4379C45.3743 66.029 44.7452 63.565 44.1607 61.2321C44.1528 61.2085 44.1921 61.1954 44.1974 61.2216C44.5277 62.1443 44.8081 63.088 45.0257 64.0473C45.7675 67.2898 45.6312 70.0946 42.8658 72.3331L42.9837 72.0998C42.8134 74.2597 42.5932 76.6372 42.3311 78.7762C42.2314 79.5154 42.1449 80.2572 42.027 80.9964C42.027 81.02 41.985 81.02 41.9877 80.9938V80.9885Z" fill="#1A1A3D"/>
</g>
<path d="M36.643 52.3513C36.3494 56.2046 34.5644 58.9962 31.8461 58.9962C28.8448 58.9962 22.3677 55.198 21.8146 51.6881C24.1789 51.2163 26.3834 51.2006 28.1161 51.2189C30.4411 51.2425 33.4739 51.2845 36.643 52.3513Z" fill="#E28B4C"/>
<path d="M36.6195 52.7602C36.36 55.3081 35.2145 58.5558 32.3337 58.9883C29.9274 59.1823 27.1096 57.5519 25.2092 56.1783C23.8776 55.1482 22.3284 53.7353 21.9274 52.1206C23.0964 55.2373 28.0375 58.1417 31.2066 58.7157C31.5631 58.7812 31.9432 58.776 32.3023 58.7498C33.1961 58.6449 33.9956 58.1548 34.609 57.5126C35.799 56.2439 36.3049 54.3592 36.6195 52.7576V52.7602Z" fill="#D0773C"/>
<path d="M4.38311 123.002C6.19178 122.706 8.04763 122.59 9.9559 122.661H46.3573C46.1816 119.967 45.9615 117.301 45.7124 114.737C45.314 110.622 44.4726 103.977 44.4726 103.977C44.4726 103.977 45.1305 102.624 45.1148 101.167C45.1043 100.349 43.8409 98.9153 43.8409 98.9153C43.8409 98.9153 44.4909 96.7213 44.3337 95.7698C44.1318 94.5378 42.7688 92.64 42.7688 92.64C42.7688 92.64 26.3833 89.8772 9.89037 77.0514C9.89037 77.0514 8.70294 83.0278 8.73702 86.9833C8.77372 91.3346 9.37136 93.7881 9.37136 93.7881C9.37136 93.7881 6.05547 107.872 4.38049 122.997L4.38311 123.002Z" fill="#0082B2"/>
<path d="M42.8396 92.7396C37.4058 92.8287 31.7543 91.2324 26.8028 89.0803C22.517 87.2166 18.4043 84.8496 14.7843 81.885C13.1015 80.5062 11.513 79.0226 10.0687 77.3922C9.43699 76.6792 10.3151 77.2506 10.6218 77.476C11.2561 77.94 11.8957 78.3987 12.5379 78.8548C13.783 79.7356 15.0465 80.5927 16.3361 81.4079C19.9771 83.7068 23.7857 85.7566 27.7202 87.5102C29.694 88.391 31.6993 89.1983 33.7308 89.9296C35.39 90.5273 37.0676 91.0725 38.7662 91.5548C39.5919 91.7907 40.4202 92.0161 41.2538 92.2154C41.6706 92.315 42.2551 92.3857 42.6693 92.4906L42.8396 92.7396Z" fill="#FFCB64"/>
<g style="mix-blend-mode:multiply" opacity="0.3">
<path d="M43.1069 98.8262C34.2444 98.4408 25.1251 94.8366 18.3124 89.1695C16.0109 87.2402 13.9244 85.0515 12.1682 82.6189C12.1472 82.5927 12.1865 82.5613 12.2101 82.5849C19.7331 91.8929 31.4973 97.4579 43.1069 98.8235V98.8262Z" fill="#1A1A3D"/>
</g>
<g style="mix-blend-mode:multiply" opacity="0.3">
<path d="M43.1042 104.451C32.9154 103.442 22.6348 98.2652 15.6859 90.7553C14.6819 89.657 13.7409 88.5037 12.868 87.3058C12.847 87.2796 12.8864 87.2481 12.91 87.2717C20.3622 96.4697 31.6703 102.459 43.1042 104.449V104.451Z" fill="#1A1A3D"/>
</g>
<g style="mix-blend-mode:multiply" opacity="0.3">
<path d="M12.91 100.554C16.5772 105.041 21.0176 108.884 25.9717 111.885C29.6834 114.137 33.6651 115.953 37.8067 117.261C39.1881 117.689 40.5879 118.074 42.0112 118.334L41.9666 118.389C41.369 117.303 40.3782 116.441 39.4397 115.647C36.5144 113.285 33.1173 111.516 29.7359 109.898C29.707 109.885 29.728 109.835 29.7568 109.851C33.2248 111.345 36.6769 113.036 39.6652 115.372C40.2838 115.862 40.9129 116.407 41.4476 116.991C41.7596 117.327 42.0584 117.686 42.2891 118.09C42.4358 118.294 42.4358 118.617 42.1659 118.729C42.0925 118.761 42.0164 118.769 41.943 118.756C41.1986 118.643 40.4935 118.478 39.7805 118.299C33.4004 116.685 27.3767 113.757 22.1028 109.83C19.7882 108.058 17.589 106.119 15.644 103.951C14.6584 102.879 13.741 101.749 12.8707 100.59C12.8497 100.564 12.8917 100.53 12.9126 100.556L12.91 100.554Z" fill="#1A1A3D"/>
</g>
<g style="mix-blend-mode:multiply" opacity="0.14">
<path d="M8.43042 98.1132C8.43042 98.1132 18.5956 96.7606 27.8146 89.8012C37.9143 82.176 40.9497 71.1116 41.8462 63.4654C35.2694 86.4381 8.43042 98.1132 8.43042 98.1132Z" fill="#00000A"/>
</g>
<path d="M40.2026 53.9739C40.2026 53.9739 39.8959 53.1403 39.3061 52.6056C38.3231 51.7144 36.9732 51.3919 36.1554 51.5571C35.7805 51.6331 35.597 52.0315 35.597 52.0315L35.943 52.1495C35.0859 55.9293 31.1121 65.5939 25.0832 71.3135C17.3819 78.6189 9.89826 77.0567 9.89826 77.0567C9.89826 77.0567 8.07649 80.0894 7.99261 81.2349C7.85106 83.1511 8.57191 83.9899 8.57191 83.9899C8.57191 83.9899 7.15643 86.0266 7.02012 87.1328C6.74489 89.3765 7.84058 90.9755 7.84058 90.9755C7.84058 90.9755 6.37005 93.1852 6.36743 94.1551C6.36743 96.9572 8.43298 98.1184 8.43298 98.1184C15.1906 95.429 26.3126 91.7042 33.6835 82.3542C41.8278 72.0238 43.1096 55.7092 43.1096 55.7092C43.1096 55.7092 43.0335 54.8677 42.1082 54.4247C41.4634 54.1154 40.2052 53.9791 40.2052 53.9791L40.2026 53.9739Z" fill="#0082B2"/>
<path d="M8.32293 98.045C14.5956 94.6426 21.3846 91.8694 26.8867 87.2166C28.9706 85.4551 30.8683 83.5678 32.5905 81.4472C35.6679 77.6569 37.7622 73.0383 39.4136 68.4747C39.9798 66.915 40.4988 65.3344 40.968 63.7433C41.3796 62.3514 41.7701 60.9543 42.124 59.5493C42.3075 58.8206 42.4857 58.0892 42.6535 57.3553C42.7269 57.0407 42.9209 55.793 43.1044 55.7039C43.0834 55.9293 43.0781 56.1548 43.0546 56.3776C42.6273 60.5532 41.8016 64.721 40.567 68.7263C39.3455 72.6818 37.7413 76.5848 35.4791 80.0685C32.006 85.4211 26.9836 89.4761 21.424 92.522C19.3506 93.6597 17.2037 94.6584 15.0229 95.5784C13.8512 96.0738 12.669 96.543 11.4842 97.0044C10.9127 97.2272 8.99922 97.8878 8.42778 98.1106L8.32031 98.0424L8.32293 98.045Z" fill="#FFCB64"/>
<path d="M36.1606 52.2779C36.2156 52.6921 35.9587 53.869 35.7753 54.7655C34.8971 59.0617 32.9731 63.1588 30.6009 66.8075C28.0032 70.8023 24.4934 74.2965 20.0792 76.2231C17.2482 77.4577 13.9035 78.0763 10.8471 77.4C10.7056 77.3686 9.86154 77.1903 9.88513 77.0934C9.93755 76.8758 10.5011 77.0567 10.7056 77.0724C11.4841 77.1353 12.2705 77.1117 13.0464 77.0357C14.5955 76.8889 16.1185 76.5219 17.5733 75.9767C21.0989 74.6556 24.1474 72.2781 26.6166 69.4681C28.7739 67.012 30.5721 64.2571 32.1081 61.3737C32.9574 59.7826 33.7254 58.1417 34.3991 56.4693C34.7687 55.5545 35.1147 54.6292 35.4109 53.6882C35.4791 53.4706 35.7674 52.7891 35.791 52.3697C35.8015 52.1757 35.6625 52.0551 35.5865 52.0289C35.6783 51.6646 36.1134 51.9975 36.1501 52.2753L36.1606 52.2779Z" fill="#FFCB64"/>
<g style="mix-blend-mode:multiply" opacity="0.3">
<path d="M9.88525 83.9925C16.7031 83.0043 24.4961 79.5494 28.9129 74.1418C31.2983 71.3869 33.2721 68.2702 35.1017 65.0958C36.9025 61.9005 38.5932 58.6082 39.702 55.0984C39.7073 55.0669 39.7623 55.0774 39.7518 55.1115C39.3062 56.907 38.6325 58.6318 37.9012 60.3252C35.2092 66.3121 30.6508 74.4275 25.2641 78.2519C22.2759 80.4276 18.8735 82.0056 15.3217 83.0147C13.5445 83.5102 11.7306 83.8929 9.88787 84.0449C9.85379 84.0501 9.85117 83.9925 9.88525 83.9925Z" fill="#1A1A3D"/>
</g>
<g style="mix-blend-mode:multiply" opacity="0.3">
<path d="M9.49991 91.0777C16.5668 89.0017 24.3493 85.3319 29.2065 79.6674C32.9339 75.2742 35.7544 70.1077 37.9405 64.7865C38.6823 63.0015 39.3036 61.1666 39.8698 59.3081C39.875 59.2767 39.9301 59.2871 39.9196 59.3212C37.9982 66.8259 34.5512 74.0291 29.6023 80.0108C25.7517 84.4302 20.5013 87.3713 15.0779 89.429C13.2588 90.1052 11.4056 90.6976 9.5104 91.1301C9.47632 91.138 9.46584 91.083 9.49991 91.0777Z" fill="#1A1A3D"/>
</g>
<path d="M25.5996 51.5204L26.3807 46.4352H34.0872V53.2085L25.5996 51.5204Z" fill="#E28B4C"/>
<mask id="mask1_5867_2097" style="mask-type:luminance" maskUnits="userSpaceOnUse" x="25" y="46" width="10" height="8">
<path d="M25.5996 51.5204L26.3807 46.4352H34.0872V53.2085L25.5996 51.5204Z" fill="white"/>
</mask>
<g mask="url(#mask1_5867_2097)">
<path d="M34.4673 46.3251V52.2779C27.293 52.2779 26.7949 46.3224 26.7949 46.3224H34.4673V46.3251Z" fill="#D17C42"/>
</g>
<path d="M43.9981 42.3303C42.8631 43.7877 41.078 43.9948 40.0112 42.7916C38.9443 41.5911 38.9994 39.4338 40.1344 37.979C41.2694 36.5216 43.0545 36.3145 44.1213 37.5177C45.1882 38.7182 45.1331 40.8729 43.9981 42.3303Z" fill="#E28B4C"/>
<path d="M43.4633 38.6631C43.4633 38.6631 41.0937 38.3827 40.7817 41.3447L43.4633 38.6631Z" fill="#D17C42"/>
<path d="M33.3978 27.1086C28.7477 27.1086 24.9417 30.9147 24.9417 35.5648V42.7628C24.9417 47.4129 29.888 51.2189 34.5407 51.2189C39.1934 51.2189 41.854 47.4129 41.854 42.7628V35.5648C41.854 30.9147 38.0479 27.1086 33.3978 27.1086Z" fill="#E28B4C"/>
<path d="M37.8225 50.464C39.8042 49.405 41.0598 47.3735 41.5866 45.232C41.6207 47.5046 40.0899 49.9057 37.8225 50.464Z" fill="#D17C42"/>
<path d="M37.1017 43.4574C36.7373 43.9188 35.8304 44.4221 34.7294 44.3696C33.6547 44.3198 32.4778 43.9397 31.8408 42.9699L37.1043 43.4574H37.1017Z" fill="white"/>
<path d="M37.9116 35.494C36.7373 35.494 35.7517 36.401 35.4686 37.6225C34.9889 37.5019 34.4752 37.5412 34.0138 37.7352C33.7674 36.456 32.7556 35.494 31.5446 35.494C30.1501 35.494 29.0177 36.7706 29.0177 38.3381C29.0177 39.9056 30.1527 41.1822 31.5446 41.1822C32.9365 41.1822 34.0715 39.9056 34.0715 38.3381C34.0715 38.2726 34.0662 38.2097 34.0636 38.1467C34.483 37.9397 34.9601 37.8925 35.4031 38.0131C35.3926 38.1205 35.3847 38.228 35.3847 38.3381C35.3847 39.9056 36.5197 41.1822 37.9116 41.1822C39.3035 41.1822 40.4385 39.9056 40.4385 38.3381C40.4385 36.7706 39.3035 35.494 37.9116 35.494ZM31.542 40.7863C30.365 40.7863 29.4083 39.688 29.4083 38.3355C29.4083 36.9829 30.365 35.8846 31.542 35.8846C32.7189 35.8846 33.6757 36.9829 33.6757 38.3355C33.6757 39.688 32.7189 40.7863 31.542 40.7863ZM37.9116 40.7863C36.7347 40.7863 35.7779 39.688 35.7779 38.3355C35.7779 36.9829 36.7347 35.8846 37.9116 35.8846C39.0886 35.8846 40.0453 36.9829 40.0453 38.3355C40.0453 39.688 39.0886 40.7863 37.9116 40.7863Z" fill="#D63941"/>
<path d="M35.1436 38.6474C35.8251 39.4495 36.2864 40.4482 36.2707 41.5203C36.2655 41.6042 36.2209 41.675 36.1606 41.7195C35.7779 41.9764 35.3873 42.1966 34.9444 42.3434C34.926 42.3486 34.9103 42.3224 34.926 42.3119L35.9404 41.4548C35.8277 40.6186 35.4555 39.536 35.1095 38.6632C35.1016 38.6422 35.1331 38.6265 35.1462 38.6474H35.1436Z" fill="#00000A"/>
<path d="M32.4778 41.6435C31.7858 42.5007 31.8094 43.7143 31.3297 44.6029C31.2511 43.5702 31.4057 42.1075 32.4647 41.6068C32.4909 41.6016 32.4962 41.6278 32.4778 41.6435Z" fill="#00000A"/>
<path d="M30.0872 39.0931C30.0715 38.4352 30.2366 37.6331 30.8709 37.2923C31.293 37.0826 31.8303 37.1246 32.2025 37.4155C32.7451 37.8533 32.9417 38.582 32.9994 39.2452C32.9994 39.2871 32.9496 39.2871 32.9339 39.2504C32.462 38.5374 31.812 37.2687 30.8316 38.0473C30.601 38.2779 30.3808 38.6764 30.1475 39.1062C30.1344 39.1325 30.0898 39.122 30.0898 39.0931H30.0872Z" fill="#00000A"/>
<path d="M39.2118 39.0904C38.8291 38.4456 38.601 37.7693 37.8619 37.8165C37.1279 37.9187 36.8789 38.6395 36.4306 39.2477C36.4202 39.2817 36.3651 39.287 36.3651 39.2424C36.4228 38.5792 36.6194 37.8505 37.162 37.4128C37.5342 37.1218 38.0716 37.0799 38.4936 37.2896C39.1279 37.6304 39.2931 38.4325 39.2773 39.0904C39.2695 39.135 39.2223 39.1245 39.2118 39.0904Z" fill="#00000A"/>
<path d="M42.1974 35.418C42.1974 38.0786 41.8541 38.9646 41.8541 38.9646L41.5474 36.4901C40.913 34.6448 38.9785 33.4914 37.4739 32.4088C35.7334 31.1532 34.9366 29.5988 34.9366 29.5988C34.4516 30.7469 33.2065 32.7103 31.542 33.4757C30.1344 34.1231 28.8579 34.4586 27.8618 35.1978C26.2419 36.3984 25.618 38.6579 25.618 38.6579H24.4463C24.4463 38.6579 24.213 37.2791 24.213 35.3368C24.213 29.8662 28.4411 26.6211 33.3219 26.6211C38.2027 26.6211 42.1974 30.5792 42.1974 35.4206V35.418Z" fill="#3D3D3D"/>
<path d="M26.2025 35.0327C27.023 33.5858 28.4516 32.5582 29.9824 31.9527C31.4791 31.4521 32.9601 30.6421 33.736 29.2109C33.7386 29.1952 33.7675 29.203 33.7622 29.2188C33.1331 30.7653 31.5866 31.6723 30.0767 32.1939C28.559 32.7365 27.1567 33.8322 26.2051 35.0301L26.2025 35.0327Z" fill="#585859"/>
<path d="M35.7884 29.2109C36.4935 30.5189 37.757 31.2162 39.0178 31.9239C40.2812 32.6579 41.4189 33.8505 41.7255 35.3211C41.7308 35.3368 41.7046 35.3446 41.6993 35.3289C41.2249 33.9501 40.1397 32.8518 38.8815 32.1493C37.6364 31.4311 36.3022 30.6369 35.7622 29.224C35.7569 29.2083 35.7779 29.1978 35.7858 29.2135L35.7884 29.2109Z" fill="#585859"/>
<path d="M22.1343 42.3303C23.2693 43.7877 25.0543 43.9948 26.1212 42.7916C27.188 41.5911 27.133 39.4338 25.998 37.979C24.863 36.5216 23.0779 36.3145 22.0111 37.5177C20.9442 38.7182 20.9992 40.8729 22.1343 42.3303Z" fill="#E28B4C"/>
<path d="M22.6691 38.6631C22.6691 38.6631 25.0387 38.3827 25.3506 41.3447L22.6691 38.6631Z" fill="#D17C42"/>
<path d="M25.8643 80.1026C25.2929 77.9794 22.7765 77.0881 21.0098 76.1943C19.3793 75.3686 17.5838 74.6058 15.9167 73.864C17.2063 72.0265 18.4986 70.1916 19.7332 68.3148C20.3571 67.3685 21.0438 66.396 21.631 65.3816L9.69381 58.9962C7.30584 61.8639 5.15379 64.9517 3.31105 68.1968C1.89295 70.6923 0.30185 73.5861 0.377866 76.5482C0.440776 79.0016 1.63869 81.1616 3.7488 82.4119C6.06075 83.7776 9.00966 84.0869 11.6257 84.3883C15.3164 84.813 19.0989 84.9545 22.8001 84.5666C24.9469 84.328 26.4253 82.1891 25.8643 80.1026Z" fill="#E28B4C"/>
<path d="M23.0727 59.662C22.4777 56.8048 19.9849 54.6266 17.0779 54.4195C13.7017 54.1757 11.5916 56.5296 9.60733 58.9123C8.51427 60.223 7.47363 61.5755 6.48804 62.9727C7.41334 63.1719 13.3977 64.5926 19.3505 69.0907C19.5262 68.8338 19.6992 68.5743 19.8695 68.3148C21.5734 65.7302 23.7542 62.9464 23.0727 59.662Z" fill="#D63941"/>
<path d="M36.4306 74.8863L37.099 76.7211C37.4372 77.6464 38.0767 79.2113 37.1698 79.6386C36.5276 79.9427 35.6521 79.3109 35.2694 78.6687C35.1252 79.4472 34.5538 80.6923 33.7962 82.1629C33.4633 82.8103 32.6848 83.1013 31.9614 83.0331L31.4659 84.0371C31.1514 84.577 30.3257 84.8418 29.7962 84.5089C29.7962 84.5089 29.5944 85.7907 28.4594 85.8824C27.9875 85.9218 27.403 85.5443 27.4109 85.0069L27.4764 82.4014C27.0282 82.7238 25.7752 83.8483 24.5747 84.3018C22.4829 85.0934 21.4842 83.6701 21.3033 83.3477C20.6926 82.2651 20.8918 80.2965 23.1933 78.6111C24.5773 77.5966 27.4266 76.1287 27.8932 75.9059C28.6481 75.5468 31.1566 75.1641 31.1566 75.1641C31.5865 75.0671 32.0374 75.1694 32.3834 75.442C32.3834 75.442 34.5354 74.4905 35.2458 74.2388C35.7307 74.0684 36.2524 74.4013 36.428 74.8837L36.4306 74.8863Z" fill="#E28B4C"/>
<path d="M29.825 84.3464C29.6415 83.4394 29.6704 82.5141 29.7542 81.5993L29.7673 81.7304C29.5419 80.8811 29.3637 80.0344 29.3768 79.1432C29.3768 79.1222 29.4082 79.117 29.4135 79.138C29.4135 79.1537 30.1474 81.6229 30.1422 81.6386L29.8643 84.3516C29.8617 84.3752 29.825 84.3726 29.825 84.349V84.3464Z" fill="#B56B39"/>
<path d="M31.9455 83.0279C31.9744 81.8981 32.247 80.8182 32.5904 79.7566L32.6218 80.0265C32.2234 79.2847 31.8748 78.5272 31.6598 77.7041C31.6493 77.6831 31.6808 77.6622 31.6939 77.6858L32.9521 79.8378C32.9573 79.8457 32.9573 79.8588 32.9547 79.8666C32.6847 80.7893 32.2653 82.1052 31.9822 83.0384C31.9744 83.062 31.9403 83.0515 31.9455 83.0279Z" fill="#B56B39"/>
<path d="M35.2511 78.6714C35.0964 78.3463 34.9942 78.0134 34.9103 77.6674L35.0099 77.8509C34.2445 77.4079 33.5341 76.8339 32.9312 76.1864C32.7294 75.961 32.5354 75.7251 32.3677 75.4551C32.3572 75.4394 32.3782 75.4158 32.3965 75.4289C33.2274 76.0816 34.4149 76.9649 35.2012 77.6386L35.2877 78.6661C35.2877 78.6897 35.2537 78.6949 35.2484 78.6687L35.2511 78.6714Z" fill="#B56B39"/>
<path d="M9.70424 72.8128C10.7763 72.5428 11.893 72.6241 12.9703 72.7971C14.0424 73.0042 15.0988 73.2978 16.0582 73.843C16.0791 73.8509 16.0713 73.8876 16.0477 73.8797C13.9769 73.3397 11.851 72.8836 9.70424 72.8495C9.68064 72.8495 9.67802 72.8128 9.70424 72.8102V72.8128Z" fill="#B56B39"/>
<g style="mix-blend-mode:multiply" opacity="0.3">
<path d="M19.3374 69.0775C20.4697 67.7092 21.5916 66.2544 22.1919 64.5664C22.1998 64.5454 22.2365 64.5533 22.2286 64.5768C22.1185 66.3672 20.821 68.1234 19.3662 69.1038C19.3505 69.1195 19.319 69.0985 19.3374 69.0775Z" fill="#1A1A3D"/>
</g>
<path d="M134.494 103.523C134.528 104.037 134.557 104.404 134.557 104.404C134.597 104.808 134.806 106.37 133.336 106.333C132.397 106.312 131.59 105.665 131.509 104.727L131.247 102.05C131.231 101.862 131.168 101.046 130.785 100.989C130.182 100.892 130.29 103.833 130.329 104.892C130.361 106.037 131.241 109.062 131.241 109.062C131.315 109.893 130.869 110.989 129.692 111.075V111.083C129.936 112.622 128.746 113.075 128.101 113.075C127.304 113.075 126.893 112.564 126.644 112.048C126.347 111.427 126.14 110.478 126.14 110.478C126.14 110.478 124.151 106.792 124.004 105.534C123.703 102.926 125.024 95.5758 125.024 95.5758L132.607 95.1328C133.834 97.3818 134.206 98.6086 134.531 99.8511C134.696 100.485 134.424 102.548 134.494 103.526V103.523Z" fill="#E28B4C"/>
<path d="M126.908 102.04C126.908 102.04 126.914 105.998 126.911 105.959C127.275 107.177 127.603 108.42 128.13 109.581C128.413 110.273 128.869 111.004 129.692 111.062C129.713 111.062 129.716 111.101 129.692 111.101C129.168 111.149 128.591 110.85 128.274 110.388C127.666 109.523 127.304 108.533 126.979 107.542C126.817 107.023 126.651 106.499 126.541 105.966C126.575 105.052 126.628 103.924 126.741 103.023C126.78 102.695 126.814 102.367 126.872 102.037C126.874 102.016 126.911 102.016 126.911 102.04H126.908Z" fill="#B56B39"/>
<path d="M125 102.006L125.011 105.932C125.346 107.408 125.69 108.991 126.159 110.467C126.167 110.488 126.13 110.504 126.122 110.48C125.391 109.054 124.956 107.492 124.617 105.932C124.633 104.619 124.699 103.298 124.961 102.006C124.961 101.982 125 101.98 125 102.006Z" fill="#B56B39"/>
<path d="M125.024 95.5732C124.853 92.4224 124.727 89.9584 124.756 86.7474C124.801 83.539 124.963 80.3463 125.281 77.1824C125.666 74.0317 126.153 70.8967 126.772 67.7879C127.409 64.6817 127.936 62.1495 128.992 59.1325C130.4 55.4313 134.644 54.1731 135.095 54.0263L140.969 61.2295V61.2452C140.738 64.396 140.172 67.4707 139.527 70.5323C138.861 73.5887 138.067 76.6215 137.171 79.6359C136.756 81.1484 136.368 82.6687 135.918 84.1759C135.467 85.6832 133.818 93.484 132.733 95.8458L125.021 95.5732H125.024Z" fill="#E28B4C"/>
<path d="M133.493 122.661H149.189L149.386 107.044L150.775 122.661H166.445L165.703 110.082C165.703 110.082 165.73 107.825 165.714 104.889H132.851C133.069 108.512 133.289 111.497 133.289 111.497L133.496 122.661H133.493Z" fill="#DD533E"/>
<path d="M165.7 110.082L165.706 110.161C160.28 111.143 154.476 111.573 149.797 111.697L149.383 107.044L149.325 111.707C142.248 111.854 136.083 111.314 133.249 110.981C133.176 109.974 133.011 107.613 132.848 104.889H165.711C165.727 107.825 165.7 110.082 165.7 110.082Z" fill="#CC4436"/>
<path d="M139.842 34.2751C139.842 34.2751 139.483 39.3342 138.788 41.0773C138.277 42.3565 136.872 43.5255 136.872 45.4155C136.872 50.2281 146.762 52.409 146.762 52.409C146.762 52.409 156.652 49.8926 156.652 45.4155C156.652 43.5255 155.247 42.3565 154.736 41.0773C154.038 39.3315 153.682 34.2751 153.682 34.2751" fill="#00000A"/>
<path d="M147.59 53.1429C149.805 52.2307 152.018 51.2006 153.944 49.7537C155.63 48.4876 157.428 46.5583 156.584 44.2805C156.18 43.19 155.336 42.346 154.83 41.3106C154.364 40.3538 154.204 39.2293 154.036 38.1861C153.829 36.8938 153.719 35.5858 153.656 34.2778C153.674 34.2778 153.69 34.2725 153.708 34.2725C153.994 36.4455 154.198 38.9908 155.168 40.9856C156.104 42.9096 157.921 44.3303 157.121 46.6999C156.495 48.5584 154.717 49.8637 153.1 50.8179C152.201 51.3474 151.26 51.8035 150.301 52.2098C149.779 52.43 149.255 52.6344 148.723 52.8231C148.484 52.907 147.787 53.2399 147.593 53.1403L147.59 53.1429Z" fill="#00000A"/>
<path d="M146.704 53.1928C144.358 52.7078 141.978 51.772 139.973 50.4535C138.148 49.253 136.29 47.3474 136.599 44.9751C136.749 43.8218 137.393 42.8781 138.062 41.9633C138.809 40.941 139.239 39.9109 139.567 38.6893C139.957 37.2293 140.266 35.7457 140.602 34.2725C140.62 34.2725 140.636 34.2778 140.654 34.2778C140.382 36.4324 140.175 38.9043 139.276 40.9017C138.4 42.844 136.523 44.2307 137.268 46.6003C137.871 48.5138 139.711 49.848 141.365 50.8153C142.261 51.3421 143.2 51.7956 144.159 52.1993C144.639 52.4011 145.124 52.5925 145.614 52.7681C145.855 52.8546 146.602 53.004 146.709 53.1901L146.704 53.1928Z" fill="#00000A"/>
<path d="M149.473 109.864C149.372 109.867 149.571 109.864 149.473 109.864V109.864Z" fill="#ECB532"/>
<path d="M165.543 93.0018C165.056 89.8615 161.745 83.9112 161.36 80.6819C160.846 76.3699 163.108 67.7696 163.873 63.4943C164.492 60.0342 163.326 54.105 159.514 52.8415C155.837 51.6252 153.139 51.0092 147 51.156C142.3 51.2688 138.434 52.0132 135.097 54.0211C135.097 54.0211 129.066 64.1103 133.511 70.5795C133.569 75.476 133.671 80.6819 133.671 80.6819C133.671 80.6819 132.146 90.3884 132.036 93.6387C131.926 96.9363 131.926 105.109 132.203 109.154C134.258 109.39 141.268 110.014 149.475 109.864C154.46 109.765 160.791 109.377 166.589 108.444C166.607 104.842 166.062 96.2967 165.546 93.0018H165.543Z" fill="#009152"/>
<path d="M166.484 104.504C160.786 105.392 154.34 105.765 149.472 105.862C141.352 106.008 134.175 105.4 132.033 105.159C131.988 103.316 131.967 101.29 131.965 99.4003C134.542 99.6624 141.787 100.2 149.472 100.061C154.24 99.9664 160.521 99.6073 166.133 98.7554C166.28 100.661 166.403 102.693 166.484 104.504Z" fill="#FFCB64"/>
<path d="M165.968 96.7633C160.398 97.5942 154.196 97.9481 149.472 98.0425C141.273 98.1919 134.033 97.568 131.97 97.3321C131.976 96.7843 131.981 96.2626 131.986 95.7751C134.581 96.0372 141.808 96.5719 149.472 96.433C154.151 96.3386 160.285 95.9926 165.816 95.1774C165.868 95.6728 165.921 96.205 165.968 96.7633Z" fill="#FFCB64"/>
<path d="M154.581 51.5519C154.607 52.2203 154.479 52.8835 154.198 53.5099C153.462 55.1613 151.737 56.43 149.069 57.2872L146.376 61.2295H143.255L141.598 56.9988C139.829 55.9503 138.877 54.7812 138.699 53.4365C138.649 53.0643 138.662 52.7078 138.728 52.3749C139.443 52.1416 140.182 51.9477 140.948 51.7878C142.804 51.3972 144.812 51.2085 146.998 51.156C149.318 51.101 151.145 51.156 152.72 51.3081C153.378 51.371 153.994 51.4522 154.581 51.5519Z" fill="#FFCB64"/>
<path d="M147.918 55.717L144.835 60.2335L143.066 55.717C140.162 54.1967 140.169 52.8966 140.948 51.7878C142.804 51.3972 144.812 51.2085 146.998 51.156C149.318 51.101 151.145 51.156 152.72 51.3081C152.945 52.7707 152.01 54.5663 147.918 55.717Z" fill="#E28B4C"/>
<path d="M152.77 51.6882C152.846 54.1993 150.015 55.3658 147.999 56.0132L148.17 55.89L146.654 58.1653C146.282 58.7341 145.509 59.8691 145.113 60.4248L144.744 60.9543C144.162 59.4051 143.362 57.3684 142.827 55.8088L142.945 55.9398C142.245 55.5257 141.538 55.0932 141.006 54.4588C140.439 53.8481 140.206 52.8913 140.694 52.1626L140.728 52.1809C140.327 52.907 140.568 53.7747 141.142 54.3304C141.685 54.9202 142.403 55.3133 143.087 55.7039L144.864 60.2177L144.799 60.2099L147.886 55.6961C148.953 55.3632 150.046 55.004 150.987 54.3776C151.682 53.9215 152.322 53.3107 152.594 52.506C152.681 52.2412 152.728 51.9634 152.728 51.6855H152.767L152.77 51.6882Z" fill="#B56B39"/>
<g style="mix-blend-mode:multiply" opacity="0.3">
<path d="M139.286 77.8195C141.952 80.9938 145.359 83.6806 149.38 84.8497C149.792 84.9493 150.245 85.0541 150.654 85.1721C150.675 85.1773 150.67 85.214 150.647 85.2088C150.348 85.1642 149.635 85.0567 149.349 85.0122C149.071 84.9545 148.363 84.7579 148.075 84.6898C146.707 84.2441 145.333 83.6019 144.148 82.7841C143.184 82.1262 142.285 81.3739 141.464 80.5429C140.646 79.7094 139.894 78.8129 139.255 77.8352C139.241 77.8142 139.276 77.7932 139.289 77.8142L139.286 77.8195Z" fill="#1A1A3D"/>
</g>
<path d="M151.176 52.1731L150.607 46.1259H142.901L142.639 52.4116L151.176 52.1731Z" fill="#E28B4C"/>
<mask id="mask2_5867_2097" style="mask-type:luminance" maskUnits="userSpaceOnUse" x="142" y="46" width="10" height="7">
<path d="M151.176 52.1731L150.607 46.1259H142.901L142.639 52.4116L151.176 52.1731Z" fill="white"/>
</mask>
<g mask="url(#mask2_5867_2097)">
<path d="M142.639 46.0158V51.1377C149.7 51.1377 150.19 46.0131 150.19 46.0131H142.639V46.0158Z" fill="#D67B3C"/>
</g>
<path d="M134.982 40.3879C136.117 41.8453 137.902 42.0524 138.969 40.8493C140.036 39.6487 139.981 37.4914 138.846 36.0366C137.711 34.5792 135.926 34.3721 134.859 35.5753C133.792 36.7758 133.847 38.9305 134.982 40.3879Z" fill="#E28B4C"/>
<path d="M135.517 36.7182C135.517 36.7182 137.886 36.4377 138.198 39.3997L135.517 36.7182Z" fill="#D67B3C"/>
<path d="M145.844 25.1637C150.494 25.1637 154.301 28.9698 154.301 33.6199V40.8178C154.301 45.4679 149.354 49.274 144.701 49.274C140.049 49.274 137.388 45.4679 137.388 40.8178V33.6199C137.388 28.9698 141.194 25.1637 145.844 25.1637Z" fill="#E28B4C"/>
<path d="M144.392 36.7235C144.243 37.6435 144.13 38.5452 143.894 39.4469L143.805 39.1796C144.109 39.5492 144.379 39.9292 144.578 40.3722C144.591 40.3906 144.568 40.4168 144.55 40.4011L143.559 39.426C143.661 38.498 143.881 37.5203 144.358 36.7025C144.374 36.6841 144.4 36.7025 144.39 36.7261L144.392 36.7235Z" fill="black"/>
<path d="M143.747 42.6318C145.451 42.6318 146.987 42.3251 148.369 41.2818L148.377 41.2766C148.392 41.2661 148.416 41.2897 148.4 41.3054C147.614 42.3565 146.316 42.9411 145.008 42.8703C144.578 42.8546 144.148 42.7917 143.734 42.6658C143.716 42.6606 143.719 42.6292 143.74 42.6292H143.747V42.6318Z" fill="black"/>
<path d="M149.097 37.2477C148.715 36.6029 148.487 35.9266 147.747 35.9738C147.014 36.076 146.764 36.7968 146.316 37.405C146.306 37.4391 146.251 37.4443 146.251 37.3997C146.308 36.7366 146.505 36.0078 147.048 35.5701C147.42 35.2791 147.957 35.2372 148.379 35.4469C149.014 35.7877 149.179 36.5898 149.163 37.2477C149.155 37.2923 149.108 37.2818 149.097 37.2477Z" fill="black"/>
<path d="M139.973 37.2503C139.957 36.5923 140.122 35.7902 140.757 35.4495C141.179 35.2398 141.716 35.2817 142.088 35.5727C142.631 36.0104 142.827 36.7391 142.885 37.4023C142.885 37.4442 142.835 37.4443 142.819 37.4076C142.348 36.6946 141.698 35.4259 140.717 36.2044C140.487 36.4351 140.266 36.8335 140.033 37.2634C140.02 37.2896 139.975 37.2791 139.975 37.2503H139.973Z" fill="black"/>
<path d="M145.273 24.7705C140.395 24.8596 136.395 28.2935 137.252 34.8964C137.291 35.2031 137.388 36.1258 137.388 36.1258L138.678 33.5963C139.362 33.4233 140.146 33.1192 140.725 32.5714C141.559 31.785 141.532 30.3905 142.361 29.5124C143.244 28.5766 144.337 28.2122 144.337 28.2122C144.337 28.2122 145.43 28.5766 146.314 29.5124C147.142 30.3905 147.116 31.7824 147.949 32.5714C149.226 33.7771 151.496 33.8165 151.496 33.8165C151.496 33.8165 151.876 35.903 153.032 37.2188H154.301C154.301 37.2188 154.956 34.6159 154.956 33.287C154.956 28.4088 151.648 24.6552 145.273 24.7705Z" fill="#00000A"/>
<path d="M157.108 40.3879C155.973 41.8453 154.188 42.0524 153.121 40.8493C152.054 39.6487 152.109 37.4914 153.244 36.0366C154.379 34.5792 156.164 34.3721 157.231 35.5753C158.298 36.7758 158.243 38.9305 157.108 40.3879Z" fill="#E28B4C"/>
<path d="M156.573 36.7182C156.573 36.7182 154.204 36.4377 153.892 39.3997L156.573 36.7182Z" fill="#D67B3C"/>
<path d="M150.513 92.8497L151.635 94.4487C152.201 95.256 153.118 96.6741 153.989 96.1761C154.605 95.8222 154.589 94.7423 154.28 94.0607C155 94.3884 156.35 94.6296 157.989 94.8524C158.71 94.9494 159.394 94.4775 159.75 93.8458L160.856 94.0136C161.48 94.0634 162.167 93.5391 162.198 92.9126C162.198 92.9126 163.365 93.4788 164.091 92.6007C164.392 92.2364 164.416 91.5417 163.973 91.2403L161.797 89.8038C162.319 89.6203 163.957 89.235 165.016 88.5089C166.862 87.2455 166.267 85.6124 166.107 85.2795C165.567 84.1603 163.839 83.1983 161.139 84.1236C159.517 84.6793 156.683 86.176 156.232 86.4329C155.506 86.8471 153.758 88.6846 153.758 88.6846C153.433 88.9808 153.257 89.408 153.284 89.8484C153.284 89.8484 151.273 91.0699 150.66 91.5103C150.243 91.8091 150.217 92.4303 150.513 92.8497Z" fill="#E28B4C"/>
<path d="M162.033 92.8734C161.126 92.6715 160.287 92.2652 159.483 91.8144C158.872 91.1381 158.379 90.3622 158.012 89.5155C158.004 89.4972 158.031 89.4788 158.044 89.4972C158.044 89.4972 159.729 91.5234 159.687 91.4815L162.054 92.8393C162.075 92.8524 162.057 92.8838 162.036 92.8734H162.033Z" fill="#B56B39"/>
<path d="M159.745 93.8616C158.618 93.8039 157.543 93.5077 156.489 93.1381C156.395 93.1093 156.322 93.0411 156.285 92.9572C155.949 92.1866 155.661 91.4028 155.517 90.564C155.509 90.543 155.54 90.5247 155.554 90.5483L156.631 92.7973C157.415 93.0123 158.869 93.5444 159.758 93.8249C159.779 93.8327 159.771 93.8694 159.745 93.8616Z" fill="#B56B39"/>
<path d="M154.269 94.0739C153.931 93.9507 153.624 93.7829 153.323 93.5942C153.257 93.5548 153.242 93.4762 153.228 93.4081C153.008 92.239 152.956 91.0096 153.265 89.8484C153.265 89.8379 153.278 89.8248 153.291 89.8301C153.299 89.8301 153.304 89.8405 153.304 89.8458C153.365 90.8576 153.501 92.4539 153.512 93.3714L154.295 94.045C154.314 94.0608 154.29 94.0896 154.269 94.0739Z" fill="#B56B39"/>
<path d="M165.632 88.0921C168.458 86.3438 170.398 83.6884 172.157 80.8785C173.939 78.0318 175.444 74.362 175.444 71.9845C175.444 69.6228 175.242 68.1601 173.732 65.8351C172.959 64.645 171.462 62.7813 169.753 60.8992C166.896 57.7511 163.863 53.7432 160.568 53.0853C157.559 52.485 154.73 55.9293 154.594 58.9962C154.455 62.0736 156.694 64.9412 158.141 66.9937C159.598 69.0618 162.146 72.0317 163.651 73.8247C163.585 74.1943 162.036 78.9938 161.617 80.1655C161.194 81.3424 160.274 83.7068 160.039 84.9388L165.632 88.0895V88.0921Z" fill="#E28B4C"/>
<path d="M169.449 70.2047C167.336 70.3541 165.577 71.5494 164.261 73.1353C164.059 73.3633 163.884 73.6123 163.664 73.8404C163.656 73.8482 163.645 73.8482 163.637 73.8404C163.748 73.5651 163.942 73.2925 164.088 73.0225C164.589 72.2545 165.21 71.5546 165.963 71.0278C166.985 70.3593 168.235 69.9898 169.457 70.1654C169.467 70.1654 169.475 70.1759 169.472 70.1863C169.472 70.1994 169.459 70.2021 169.449 70.2021V70.2047Z" fill="#B56B39"/>
<g style="mix-blend-mode:multiply" opacity="0.3">
<path d="M137.884 71.4184C139.755 71.1851 141.517 70.5533 143.396 70.3279C145.307 70.1733 147.147 70.8574 148.998 71.0566C150.067 71.2034 151.152 71.2716 152.23 71.2978L152.699 71.3187C152.723 71.3187 152.728 71.3554 152.702 71.3581C151.462 71.4603 150.211 71.476 148.969 71.3633C147.108 71.2532 145.299 70.5848 143.428 70.6923C141.569 70.8653 139.76 71.4236 137.884 71.4577C137.86 71.4577 137.857 71.4184 137.884 71.4184Z" fill="#1A1A3D"/>
</g>
</svg>
