<svg width="24" height="24" viewBox="0 0 24 24" fill="none" xmlns="http://www.w3.org/2000/svg">
<g id="swap_vert">
<path id="Vector" d="M8.00437 6.98705L8.00436 12.997C8.00436 13.5471 8.45436 13.997 9.00436 13.997C9.55436 13.997 10.0044 13.5471 10.0044 12.9971L10.0044 6.98705L11.7944 6.98705C12.2444 6.98705 12.4644 6.44705 12.1444 6.13705L9.35437 3.35705C9.15437 3.16705 8.84437 3.16705 8.64437 3.35705L5.85437 6.13705C5.53437 6.44705 5.76437 6.98705 6.20437 6.98705L8.00437 6.98705ZM15.3544 20.6471L18.1444 17.8571C18.4644 17.5471 18.2444 17.0071 17.7944 17.0071L16.0044 17.0071L16.0044 10.9971C16.0044 10.447 15.5544 9.99705 15.0044 9.99705C14.4544 9.99705 14.0044 10.447 14.0044 10.997L14.0044 17.0071L12.2144 17.0071C11.7644 17.0071 11.5444 17.5471 11.8644 17.8571L14.6544 20.6471C14.8444 20.8371 15.1644 20.8371 15.3544 20.6471Z" fill="#FCFCFC"/>
</g>
</svg>
